<svg width="766" height="840" viewBox="0 0 766 840" fill="none" xmlns="http://www.w3.org/2000/svg">
<path d="M391 825.304V827.789C391.833 827.789 392.665 827.786 393.497 827.781L393.48 825.296C392.654 825.301 391.827 825.304 391 825.304ZM388.503 827.781C389.335 827.786 390.167 827.789 391 827.789V825.304C390.173 825.304 389.346 825.301 388.52 825.296L388.503 827.781ZM403.361 825.105C401.72 825.158 400.075 825.201 398.428 825.233L398.454 826.474L398.453 826.475L398.477 827.716C400.134 827.684 401.79 827.64 403.441 827.586L403.361 825.105ZM378.559 827.586C380.211 827.64 381.865 827.684 383.523 827.716L383.547 826.475L383.57 825.233C381.923 825.201 380.279 825.158 378.637 825.105L378.559 827.586ZM413.212 824.659C411.57 824.754 409.926 824.84 408.279 824.915L408.39 827.395C410.048 827.32 411.703 827.234 413.356 827.137L413.212 824.659ZM368.716 825.9L368.645 827.137C370.297 827.234 371.952 827.32 373.61 827.395L373.721 824.915C372.074 824.84 370.43 824.754 368.788 824.659L368.716 825.9ZM423.065 823.956C421.429 824.094 419.789 824.222 418.147 824.339L418.324 826.816C419.977 826.698 421.627 826.569 423.274 826.43L423.065 823.956ZM358.727 826.43C360.374 826.569 362.024 826.698 363.677 826.816L363.853 824.339C362.211 824.222 360.571 824.094 358.935 823.956L358.727 826.43ZM432.881 822.998C431.246 823.179 429.606 823.351 427.964 823.511L428.169 825.612L428.206 825.981C429.859 825.82 431.509 825.648 433.155 825.465L432.881 822.998ZM349.117 822.998L348.846 825.465C350.492 825.648 352.142 825.82 353.796 825.981L354.035 823.511C352.392 823.351 350.753 823.179 349.117 822.998ZM442.681 821.782C441.054 822.005 439.424 822.218 437.791 822.421L438.097 824.886C439.74 824.681 441.381 824.467 443.018 824.242L442.681 821.782ZM338.982 824.242C340.62 824.468 342.26 824.681 343.904 824.886L344.209 822.421C342.576 822.218 340.946 822.005 339.319 821.782L338.982 824.242ZM452.437 820.31C450.812 820.577 449.182 820.834 447.549 821.08L447.735 822.307L447.734 822.308L447.919 823.536C449.563 823.288 451.203 823.03 452.84 822.761L452.437 820.31ZM329.16 822.761C330.797 823.03 332.437 823.288 334.081 823.536L334.265 822.308L334.451 821.08C332.818 820.834 331.187 820.577 329.561 820.31L329.16 822.761ZM462.153 818.581C460.541 818.89 458.925 819.188 457.306 819.476L457.716 821.782L457.741 821.921C459.372 821.631 460.998 821.331 462.621 821.02L462.153 818.581ZM319.441 820.698L319.38 821.02C321.003 821.331 322.63 821.631 324.26 821.921L324.693 819.476C323.074 819.188 321.458 818.89 319.846 818.581L319.441 820.698ZM471.823 816.595C470.215 816.947 468.602 817.291 466.985 817.622L467.484 820.054C469.111 819.72 470.735 819.375 472.355 819.02L471.823 816.595ZM309.645 819.02C311.265 819.375 312.889 819.72 314.516 820.054L315.015 817.622C313.398 817.29 311.784 816.947 310.175 816.595L309.645 819.02ZM481.43 814.356C479.837 814.75 478.24 815.133 476.639 815.506L476.921 816.716L477.058 817.309L477.203 817.924C478.814 817.549 480.422 817.163 482.025 816.767L481.43 814.356ZM299.975 816.767C301.579 817.163 303.187 817.549 304.799 817.924L305.079 816.716L305.36 815.506C303.759 815.133 302.162 814.749 300.569 814.356L299.975 816.767ZM490.985 811.861C489.398 812.298 487.807 812.725 486.211 813.141L486.838 815.545C488.444 815.126 490.046 814.696 491.644 814.257L490.985 811.861ZM290.509 813.696L290.356 814.255C291.954 814.695 293.556 815.126 295.162 815.545L295.475 814.344L295.788 813.141C294.192 812.725 292.6 812.298 291.013 811.861L290.509 813.696ZM500.456 809.118C498.886 809.595 497.312 810.063 495.734 810.521L496.424 812.906C498.013 812.446 499.598 811.974 501.179 811.494L500.456 809.118ZM281.183 810.307L280.945 811.087L280.823 811.494C282.403 811.974 283.987 812.445 285.576 812.905L286.266 810.519C284.688 810.062 283.113 809.595 281.543 809.118L281.183 810.307ZM509.869 806.12C508.309 806.64 506.743 807.15 505.173 807.65L505.55 808.833L505.865 809.827L505.926 810.016C507.507 809.512 509.083 808.999 510.654 808.475L509.869 806.12ZM271.739 807.298L271.347 808.475C272.919 808.999 274.495 809.512 276.075 810.016L276.827 807.65C275.257 807.15 273.691 806.639 272.131 806.119L271.739 807.298ZM519.179 802.879C517.637 803.439 516.09 803.989 514.538 804.529L514.947 805.701L515.354 806.874C516.916 806.331 518.474 805.777 520.026 805.213L519.179 802.879ZM261.975 805.213C263.528 805.777 265.085 806.331 266.647 806.874L267.462 804.529C265.91 803.989 264.362 803.439 262.82 802.879L261.975 805.213ZM528.421 799.384C526.891 799.986 525.355 800.578 523.815 801.161L524.692 803.484C526.243 802.898 527.789 802.301 529.33 801.695L528.421 799.384ZM252.67 801.693C254.211 802.3 255.757 802.897 257.308 803.483L258.184 801.161C256.644 800.578 255.109 799.985 253.579 799.383L252.67 801.693ZM537.551 795.652C536.038 796.294 534.52 796.926 532.998 797.549L533.937 799.846C535.47 799.219 536.998 798.584 538.52 797.938L537.551 795.652ZM243.48 797.938C245.003 798.584 246.531 799.219 248.064 799.846L249.002 797.549C247.48 796.926 245.961 796.294 244.449 795.652L243.48 797.938ZM546.59 791.674C545.094 792.356 543.593 793.028 542.086 793.691L542.587 794.828L542.948 795.652L543.087 795.965C544.603 795.298 546.114 794.621 547.619 793.934L546.59 791.674ZM234.381 793.934C235.887 794.621 237.398 795.298 238.915 795.965L239.914 793.691C238.407 793.028 236.905 792.356 235.409 791.674L234.381 793.934ZM555.512 787.462C554.035 788.184 552.551 788.896 551.062 789.599L552.122 791.845C553.621 791.137 555.115 790.42 556.603 789.693L555.512 787.462ZM225.399 789.693C226.887 790.42 228.38 791.137 229.879 791.845L230.938 789.599C229.449 788.896 227.965 788.184 226.486 787.462L225.399 789.693ZM564.326 783.013C562.868 783.773 561.405 784.523 559.936 785.265L560.496 786.374L560.885 787.148L561.055 787.481C562.534 786.735 564.007 785.98 565.474 785.215L564.326 783.013ZM216.526 785.215C217.993 785.98 219.467 786.735 220.946 787.481L222.064 785.265C220.595 784.523 219.132 783.772 217.674 783.011L216.526 785.215ZM573.015 778.332C571.576 779.131 570.132 779.922 568.681 780.704L569.858 782.89C571.318 782.103 572.773 781.307 574.222 780.502L573.015 778.332ZM208.382 779.417L208.234 779.682L207.779 780.502C209.228 781.307 210.682 782.104 212.142 782.89L212.73 781.797L213.319 780.704C211.868 779.922 210.423 779.131 208.985 778.332L208.382 779.417ZM581.578 773.424C580.163 774.26 578.741 775.087 577.314 775.905L578.549 778.059C579.985 777.235 581.416 776.402 582.841 775.56L581.578 773.424ZM199.16 775.56C200.584 776.402 202.015 777.235 203.451 778.059L204.685 775.905C203.258 775.087 201.837 774.26 200.422 773.424L199.16 775.56ZM590.01 768.289C588.616 769.163 587.215 770.029 585.808 770.885L587.1 773.006C588.516 772.144 589.926 771.273 591.33 770.393L590.01 768.289ZM190.672 770.393C192.075 771.273 193.485 772.144 194.901 773.006L196.19 770.884C194.784 770.028 193.384 769.162 191.99 768.287L190.672 770.393ZM598.3 762.935C596.931 763.845 595.556 764.745 594.174 765.637L594.849 766.681L594.847 766.682L595.52 767.724C596.911 766.826 598.295 765.919 599.672 765.003L598.3 762.935ZM183.7 762.934L182.328 765.003C183.705 765.919 185.089 766.826 186.48 767.724L187.153 766.682L187.826 765.637C186.444 764.745 185.069 763.844 183.7 762.934ZM606.451 757.36C605.105 758.307 603.752 759.246 602.393 760.175L603.795 762.224C605.163 761.289 606.524 760.345 607.878 759.392L606.451 757.36ZM174.122 759.391C175.477 760.344 176.838 761.289 178.206 762.224L178.906 761.2L179.607 760.174C178.248 759.244 176.895 758.307 175.549 757.36L174.122 759.391ZM614.446 751.576C613.126 752.557 611.8 753.53 610.467 754.494L611.922 756.507C613.264 755.536 614.599 754.556 615.927 753.568L614.446 751.576ZM166.074 753.568C167.402 754.556 168.736 755.536 170.078 756.507L171.532 754.494C170.199 753.53 168.873 752.557 167.554 751.576L166.074 753.568ZM622.29 745.579C620.997 746.596 619.696 747.604 618.389 748.603L619.896 750.575C621.212 749.569 622.522 748.555 623.824 747.532L622.29 745.579ZM158.177 747.532C159.479 748.555 160.789 749.569 162.105 750.575L163.611 748.603C162.303 747.604 161.002 746.595 159.709 745.578L158.177 747.532ZM629.971 739.379C628.705 740.429 627.43 741.471 626.15 742.505L627.711 744.439C629 743.398 630.281 742.349 631.556 741.291L629.971 739.379ZM150.729 740.948L150.445 741.291C151.72 742.348 153.002 743.397 154.291 744.438L155.849 742.505C154.569 741.471 153.295 740.429 152.029 739.379L150.729 740.948ZM637.487 732.978C636.249 734.061 635.003 735.136 633.751 736.203L635.36 738.093C636.621 737.019 637.874 735.936 639.12 734.846L637.487 732.978ZM142.881 734.846C144.127 735.936 145.38 737.018 146.64 738.092L147.444 737.149L148.249 736.203C146.997 735.136 145.751 734.061 144.513 732.978L142.881 734.846ZM644.83 726.381C643.621 727.496 642.403 728.604 641.179 729.704L642.838 731.552C644.071 730.444 645.296 729.329 646.513 728.205L644.83 726.381ZM135.488 728.205C136.705 729.329 137.931 730.443 139.163 731.551L139.991 730.628L140.821 729.704C139.597 728.604 138.379 727.495 137.17 726.379L135.488 728.205ZM651.997 719.591C650.818 720.738 649.631 721.877 648.437 723.009L650.144 724.812C651.346 723.673 652.54 722.525 653.727 721.371L651.997 719.591ZM128.273 721.371C129.46 722.525 130.655 723.672 131.857 724.812L133.563 723.009C132.369 721.877 131.182 720.737 130.003 719.589L128.273 721.371ZM658.982 712.614C657.833 713.792 656.676 714.962 655.512 716.125L657.266 717.882C658.438 716.711 659.603 715.534 660.759 714.348L658.982 712.614ZM121.241 714.348C122.397 715.534 123.562 716.711 124.734 717.882L126.488 716.125C125.323 714.962 124.167 713.791 123.018 712.613L121.241 714.348ZM665.778 705.454C664.661 706.662 663.536 707.863 662.404 709.056L664.204 710.766C665.345 709.565 666.476 708.355 667.601 707.139L665.778 705.454ZM114.4 707.139C115.525 708.355 116.656 709.565 117.797 710.766L119.596 709.056C118.463 707.863 117.338 706.662 116.221 705.454L114.4 707.139ZM672.385 698.117C671.3 699.354 670.207 700.585 669.106 701.808L670.95 703.469C672.058 702.238 673.159 701 674.251 699.755L672.385 698.117ZM107.749 699.753C108.841 700.999 109.943 702.237 111.051 703.469L111.972 702.639L112.894 701.806C111.793 700.584 110.7 699.354 109.615 698.117L107.749 699.753ZM678.793 690.607C677.742 691.873 676.682 693.132 675.614 694.383L677.503 695.997C678.578 694.737 679.643 693.468 680.702 692.194L678.793 690.607ZM101.298 692.193C102.357 693.467 103.423 694.736 104.498 695.996L106.386 694.383C105.318 693.131 104.258 691.872 103.207 690.606L101.298 692.193ZM684.999 682.93C683.982 684.223 682.956 685.51 681.922 686.789L683.852 688.35C684.894 687.062 685.926 685.767 686.951 684.465L684.999 682.93ZM95.0506 684.465C96.0749 685.767 97.1075 687.062 98.1489 688.35L100.078 686.789C99.0437 685.509 98.0181 684.222 97.0005 682.929L95.0506 684.465ZM691.001 675.09C690.018 676.41 689.026 677.723 688.026 679.029L689.013 679.784L689.998 680.539C691.005 679.224 692.003 677.901 692.992 676.572L691.001 675.09ZM89.0081 676.572C89.9976 677.901 90.9964 679.223 92.0033 680.539L93.9726 679.029C92.9727 677.723 91.9819 676.41 90.9993 675.09L89.0081 676.572ZM696.79 667.094C695.843 668.439 694.887 669.778 693.922 671.111L695.931 672.568C696.903 671.226 697.866 669.877 698.82 668.522L696.79 667.094ZM84.1953 667.808L83.1815 668.522C84.1352 669.877 85.0974 671.225 86.0688 672.567L87.0728 671.84L88.0781 671.111C87.1131 669.778 86.1575 668.438 85.2102 667.092L84.1953 667.808ZM702.364 658.945C701.454 660.315 700.534 661.679 699.605 663.036L701.655 664.438C702.589 663.071 703.515 661.699 704.432 660.319L702.364 658.945ZM78.6027 659.633L77.6338 660.277L77.5695 660.319C78.4861 661.699 79.4118 663.071 80.3464 664.438L81.3699 663.737L82.3945 663.035C81.4662 661.678 80.5463 660.315 79.6358 658.945L78.6027 659.633ZM707.719 650.649C706.845 652.044 705.961 653.433 705.068 654.816L706.112 655.489L707.155 656.164C708.054 654.772 708.942 653.372 709.822 651.968L707.719 650.649ZM72.1794 651.968C73.0595 653.372 73.9476 654.771 74.846 656.163L76.9317 654.816C76.0392 653.433 75.1552 652.044 74.2809 650.649L72.1794 651.968ZM712.848 642.215C712.013 643.632 711.167 645.044 710.313 646.448L712.434 647.738C713.294 646.324 714.145 644.903 714.986 643.477L712.848 642.215ZM67.0137 643.477C67.8552 644.903 68.7073 646.323 69.5674 647.737L70.6261 647.094L71.6871 646.447C70.8328 645.043 69.9874 643.632 69.1515 642.215L67.0137 643.477ZM717.751 633.643C716.953 635.083 716.145 636.518 715.328 637.946L716.406 638.563L716.405 638.564L717.483 639.18C718.306 637.742 719.119 636.298 719.923 634.848L717.751 633.643ZM62.0771 634.846C62.8812 636.297 63.6951 637.742 64.5181 639.18L66.6717 637.946C65.8544 636.518 65.0461 635.083 64.2477 633.643L62.0771 634.846ZM722.42 624.948C721.661 626.408 720.892 627.862 720.114 629.311L722.302 630.486C723.085 629.027 723.858 627.563 724.622 626.093L722.42 624.948ZM57.3794 626.093C58.1432 627.563 58.9162 629.027 59.6991 630.486L61.8843 629.311C61.1066 627.862 60.339 626.408 59.5803 624.948L57.3794 626.093ZM726.857 616.121C726.137 617.603 725.406 619.08 724.667 620.551L725.777 621.109L726.883 621.667C727.628 620.185 728.365 618.699 729.09 617.207L726.857 616.121ZM55.1433 616.121L52.9109 617.207C53.6358 618.699 54.3711 620.185 55.1154 621.666L56.2238 621.109L57.3321 620.551C56.5927 619.08 55.8634 617.603 55.1433 616.121ZM731.047 607.19C730.369 608.689 729.68 610.183 728.981 611.671L730.106 612.199L731.228 612.727C731.932 611.228 732.625 609.724 733.309 608.214L731.047 607.19ZM48.6922 608.214C49.3759 609.724 50.0697 611.228 50.7731 612.727L53.0188 611.671C52.3203 610.183 51.6304 608.688 50.9513 607.189L48.6922 608.214ZM735.001 598.137C734.362 599.655 733.714 601.169 733.056 602.677L734.194 603.173L735.329 603.67C735.992 602.152 736.647 600.629 737.29 599.101L735.001 598.137ZM45.8559 598.619L44.7112 599.101C45.354 600.629 46.008 602.151 46.6708 603.669L47.807 603.173L48.9444 602.675C48.2861 601.168 47.6378 599.655 46.9994 598.137L45.8559 598.619ZM738.704 588.991C738.107 590.526 737.5 592.056 736.883 593.58L739.184 594.512C739.806 592.977 740.416 591.437 741.018 589.892L738.704 588.991ZM40.9836 589.892C41.5848 591.436 42.1944 592.977 42.8158 594.512L43.9666 594.046L45.1174 593.579C44.5003 592.055 43.8932 590.525 43.296 588.991L40.9836 589.892ZM742.161 579.741C741.606 581.289 741.041 582.834 740.466 584.373L742.79 585.242C743.37 583.692 743.938 582.137 744.497 580.578L742.161 579.741ZM37.5034 580.578C38.0619 582.137 38.6306 583.691 39.2095 585.241L40.3712 584.808L41.5341 584.372C40.9591 582.833 40.3937 581.289 39.8389 579.741L37.5034 580.578ZM745.364 570.403C744.85 571.968 744.327 573.53 743.793 575.086L746.141 575.892C746.678 574.325 747.208 572.754 747.725 571.178L745.364 570.403ZM35.4577 570.79L34.2766 571.178C34.7934 572.754 35.3229 574.324 35.8603 575.891L37.0329 575.489L38.2067 575.085C37.6729 573.529 37.1497 571.968 36.6363 570.403L35.4577 570.79ZM748.313 560.982C747.843 562.557 747.362 564.129 746.872 565.695L749.243 566.436C749.736 564.859 750.219 563.278 750.692 561.692L748.313 560.982ZM31.3093 561.691C31.7821 563.277 32.2649 564.858 32.7584 566.435L35.1266 565.694C34.6366 564.128 34.1567 562.557 33.6873 560.982L31.3093 561.691ZM751.005 551.48C750.577 553.072 750.139 554.66 749.69 556.244L752.078 556.921C752.53 555.326 752.971 553.727 753.402 552.123L751.005 551.48ZM28.5991 552.123C29.0299 553.727 29.4714 555.325 29.9233 556.92L32.3097 556.244C31.8609 554.66 31.4232 553.071 30.9952 551.479L28.5991 552.123ZM753.436 541.918C753.053 543.517 752.659 545.112 752.255 546.702L754.661 547.314C755.068 545.712 755.465 544.106 755.852 542.495L753.436 541.918ZM26.1496 542.495C26.5357 544.105 26.9332 545.711 27.3404 547.312L28.5421 547.008L29.745 546.701C29.3406 545.11 28.9474 543.515 28.5639 541.917L26.1496 542.495ZM755.61 532.277C755.269 533.891 754.918 535.503 754.555 537.109L756.978 537.654C757.343 536.037 757.696 534.415 758.039 532.79L755.61 532.277ZM25.1759 532.533L23.962 532.789C24.3056 534.414 24.6582 536.036 25.0231 537.654L26.2333 537.382L27.4447 537.108C27.0823 535.502 26.7297 533.891 26.3885 532.277L25.1759 532.533ZM757.519 522.601C757.223 524.219 756.915 525.834 756.597 527.445L759.034 527.924C759.353 526.303 759.662 524.677 759.96 523.048L757.519 522.601ZM23.2612 522.825L22.0413 523.048C22.3397 524.677 22.6479 526.303 22.9677 527.924L25.4026 527.444C25.0851 525.833 24.7774 524.219 24.481 522.601L23.2612 522.825ZM759.168 512.85C758.915 514.482 758.651 516.112 758.376 517.737L760.823 518.15C761.1 516.513 761.367 514.874 761.622 513.231L759.168 512.85ZM20.3788 513.229C20.634 514.873 20.901 516.513 21.1779 518.15L23.6237 517.736C23.3488 516.111 23.0854 514.482 22.8319 512.85L20.3788 513.229ZM760.549 503.092C760.341 504.724 760.121 506.353 759.891 507.979L761.122 508.153L762.35 508.327C762.582 506.69 762.802 505.05 763.012 503.406L760.549 503.092ZM18.9891 503.405C19.1992 505.049 19.4183 506.69 19.65 508.327L22.1092 507.979C21.8791 506.354 21.6593 504.724 21.4507 503.092L18.9891 503.405ZM761.67 493.264C761.505 494.907 761.329 496.547 761.142 498.184L762.378 498.325L762.377 498.326L763.609 498.465C763.797 496.817 763.974 495.166 764.14 493.511L761.67 493.264ZM19.0958 493.387L17.8614 493.511C18.0275 495.165 18.2045 496.816 18.3925 498.464L20.8577 498.184C20.671 496.547 20.4952 494.907 20.3303 493.264L19.0958 493.387ZM762.523 483.446C762.403 485.089 762.272 486.728 762.129 488.364L764.602 488.579C764.745 486.931 764.877 485.281 764.998 483.627L762.523 483.446ZM17.0028 483.626C17.1242 485.28 17.2562 486.93 17.3994 488.578L19.8707 488.364C19.7284 486.728 19.5971 485.088 19.4766 483.445L17.0028 483.626ZM763.115 473.575C763.038 475.222 762.95 476.867 762.852 478.509L765.331 478.657C765.43 477.004 765.518 475.348 765.595 473.689L763.115 473.575ZM16.4062 473.687C16.4834 475.347 16.5714 477.004 16.6706 478.657L19.148 478.509C19.0495 476.867 18.9615 475.221 18.8848 473.573L16.4062 473.687ZM763.443 463.721C763.41 465.368 763.366 467.013 763.312 468.656L765.793 468.737C765.848 467.084 765.892 465.428 765.925 463.769L763.443 463.721ZM16.0764 463.768C16.1095 465.427 16.1536 467.083 16.2086 468.737L18.6884 468.656C18.6337 467.014 18.5902 465.368 18.5574 463.721L16.0764 463.768ZM766 456.289C766 455.456 765.998 454.623 765.993 453.791L765.992 453.792L763.508 453.809C763.514 454.635 763.517 455.462 763.517 456.289C763.517 457.117 763.514 457.944 763.508 458.77L765.993 458.787C765.998 457.955 766 457.122 766 456.289ZM16 456.289C16 457.122 16.003 457.954 16.0085 458.786L18.4919 458.769C18.4864 457.943 18.4834 457.116 18.4834 456.289C18.4834 455.461 18.4864 454.634 18.4919 453.808L16.0085 453.791C16.0029 454.623 16 455.455 16 456.289ZM764.552 443.881L763.312 443.923C763.366 445.565 763.41 447.21 763.443 448.857L765.925 448.809C765.892 447.15 765.848 445.494 765.793 443.84L764.552 443.881ZM16.2086 443.84C16.1536 445.493 16.1095 447.149 16.0764 448.808L18.5574 448.857C18.5902 447.21 18.6338 445.565 18.6884 443.923L16.2086 443.84ZM762.852 434.069C762.95 435.711 763.038 437.357 763.115 439.005L765.595 438.89C765.518 437.23 765.43 435.574 765.331 433.921L762.852 434.069ZM16.6706 433.92C16.5715 435.573 16.4834 437.229 16.4062 438.888L17.6443 438.947L17.6455 438.945L18.8848 439.004C18.9615 437.356 19.0495 435.711 19.148 434.069L16.6706 433.92ZM762.129 424.214C762.272 425.85 762.403 427.491 762.523 429.133L764.998 428.951C764.877 427.297 764.745 425.647 764.602 423.999L762.129 424.214ZM17.3994 423.998C17.2562 425.646 17.1242 427.296 17.0028 428.95L19.4766 429.132C19.5972 427.49 19.7285 425.85 19.8707 424.214L17.3994 423.998ZM761.142 414.394C761.329 416.031 761.505 417.671 761.67 419.315L762.905 419.19L764.14 419.066C763.974 417.412 763.797 415.761 763.609 414.113L761.142 414.394ZM18.3925 414.112C18.2045 415.76 18.0275 417.411 17.8614 419.066L20.3303 419.315C20.4952 417.671 20.671 416.031 20.8577 414.394L18.3925 414.112ZM762.35 404.251L759.891 404.599C760.121 406.225 760.341 407.854 760.549 409.486L761.781 409.329L763.012 409.172C762.802 407.528 762.583 405.887 762.351 404.25L762.35 404.251ZM19.65 404.25C19.4183 405.886 19.1991 407.527 18.9891 409.171L21.4507 409.486C21.6593 407.854 21.8792 406.225 22.1092 404.599L19.65 404.25ZM759.6 394.635L758.376 394.842C758.651 396.467 758.915 398.096 759.168 399.729L761.622 399.348C761.367 397.704 761.1 396.064 760.823 394.427L759.6 394.635ZM21.1779 394.427C20.9011 396.064 20.6339 397.703 20.3788 399.346L21.6047 399.538L21.6059 399.537L22.8319 399.729C23.0854 398.096 23.3488 396.466 23.6237 394.841L21.1779 394.427ZM756.597 385.134C756.915 386.745 757.223 388.359 757.519 389.977L758.74 389.752L759.96 389.529C759.662 387.9 759.353 386.274 759.034 384.653L756.597 385.134ZM22.9677 384.653C22.6479 386.274 22.3397 387.9 22.0413 389.529L24.481 389.977C24.7774 388.359 25.085 386.744 25.4026 385.133L22.9677 384.653ZM755.767 375.196L754.555 375.47C754.918 377.077 755.269 378.687 755.61 380.302L756.825 380.044L758.039 379.788C757.696 378.163 757.343 376.541 756.978 374.923L755.767 375.196ZM25.0231 374.923C24.6583 376.54 24.3055 378.162 23.962 379.787L26.3897 380.302C26.7308 378.687 27.0823 377.076 27.4447 375.469L25.0231 374.923ZM753.458 365.57L752.255 365.877C752.659 367.468 753.053 369.063 753.436 370.661L755.852 370.081C755.465 368.472 755.068 366.866 754.661 365.264L753.458 365.57ZM27.3404 365.264C26.9332 366.866 26.5357 368.472 26.1496 370.081L27.3562 370.371L27.3574 370.37L28.5639 370.66C28.9474 369.062 29.3407 367.466 29.745 365.876L27.3404 365.264ZM749.69 356.334C750.139 357.918 750.577 359.507 751.005 361.099L753.402 360.453C752.971 358.85 752.53 357.252 752.078 355.657L749.69 356.334ZM29.9233 355.656C29.4713 357.251 29.0301 358.85 28.5991 360.453L30.9952 361.098C31.4232 359.506 31.861 357.918 32.3097 356.334L29.9233 355.656ZM746.872 346.885C747.362 348.451 747.843 350.021 748.313 351.596L750.692 350.886C750.219 349.3 749.736 347.719 749.243 346.142L746.872 346.885ZM32.7584 346.141C32.2649 347.718 31.7821 349.299 31.3093 350.885L33.6873 351.596C34.1568 350.021 34.6377 348.45 35.1278 346.883L32.7584 346.141ZM744.967 337.089L743.793 337.493C744.327 339.049 744.85 340.61 745.364 342.176L746.544 341.787L747.723 341.4L747.725 341.399C747.208 339.823 746.678 338.253 746.141 336.686L744.967 337.089ZM35.8603 336.685C35.3228 338.252 34.7935 339.823 34.2766 341.399L36.6363 342.176C37.1497 340.61 37.6728 339.048 38.2067 337.492L35.8603 336.685ZM741.629 327.771L740.466 328.206C741.041 329.745 741.606 331.289 742.161 332.838L744.498 331.999C743.939 330.44 743.371 328.886 742.792 327.336L741.629 327.771ZM39.2107 327.335C38.6317 328.885 38.0633 330.44 37.5046 331.999L39.8389 332.838C40.3938 331.289 40.959 329.744 41.5341 328.205L39.2107 327.335ZM739.184 318.066L738.033 318.532L736.883 318.999C737.5 320.524 738.107 322.054 738.704 323.588L739.862 323.136L741.018 322.685C740.416 321.14 739.807 319.6 739.185 318.065L739.184 318.066ZM42.8171 318.065C42.1956 319.6 41.5849 321.14 40.9836 322.685L42.138 323.137L42.1392 323.136L43.296 323.587C43.8931 322.053 44.5002 320.522 45.1174 318.998L42.8171 318.065ZM733.056 309.903C733.714 311.41 734.362 312.923 735.001 314.441L736.145 313.958L737.29 313.476C736.647 311.948 735.993 310.425 735.33 308.908L733.056 309.903ZM46.6708 308.907C46.0078 310.425 45.3542 311.948 44.7112 313.476L46.9994 314.441C47.6379 312.923 48.286 311.409 48.9444 309.901L46.6708 308.907ZM728.981 300.907C729.68 302.395 730.368 303.89 731.047 305.389L733.309 304.363C732.625 302.853 731.932 301.349 731.228 299.85L728.981 300.907ZM50.7731 299.85C50.0697 301.349 49.3759 302.853 48.6922 304.363L49.8211 304.876L49.8224 304.875L50.9525 305.388C51.6314 303.889 52.3204 302.395 53.0188 300.907L50.7731 299.85ZM724.667 292.028C725.406 293.499 726.137 294.975 726.857 296.458L729.09 295.37C728.365 293.878 727.63 292.392 726.886 290.911L724.667 292.028ZM55.1167 290.91C54.372 292.391 53.6361 293.878 52.9109 295.37L55.1433 296.458C55.8634 294.975 56.594 293.499 57.3333 292.028L55.1167 290.91ZM720.116 283.267C720.893 284.716 721.661 286.17 722.42 287.63L724.622 286.484C723.858 285.014 723.085 283.55 722.302 282.091L720.116 283.267ZM59.6991 282.091C58.9162 283.55 58.1432 285.014 57.3794 286.484L59.5803 287.63C60.339 286.17 61.1066 284.716 61.8843 283.267L59.6991 282.091ZM715.328 274.632C716.146 276.06 716.954 277.495 717.752 278.935L719.924 277.731C719.12 276.28 718.306 274.835 717.483 273.397L715.328 274.632ZM64.5181 273.397C63.6953 274.835 62.8822 276.279 62.0783 277.729L64.2477 278.935C65.0461 277.495 65.8545 276.06 66.6717 274.632L64.5181 273.397ZM710.313 266.131C711.167 267.536 712.013 268.946 712.848 270.363L714.986 269.1C714.145 267.674 713.294 266.253 712.434 264.839L710.313 266.131ZM69.5674 264.839C68.7073 266.253 67.8565 267.674 67.0149 269.1L69.1515 270.363C69.9873 268.946 70.8328 267.535 71.6871 266.131L69.5674 264.839ZM705.068 257.762C705.961 259.145 706.845 260.534 707.719 261.929L709.822 260.609C708.942 259.205 708.054 257.806 707.155 256.414L705.068 257.762ZM74.846 256.414C73.9476 257.806 73.0595 259.205 72.1794 260.609L74.2809 261.929C75.1552 260.534 76.0392 259.145 76.9317 257.762L74.846 256.414ZM700.63 248.841L699.605 249.543C700.534 250.9 701.454 252.263 702.364 253.633L704.432 252.257C703.515 250.878 702.589 249.506 701.655 248.139L700.63 248.841ZM80.3464 248.139C79.4118 249.506 78.4861 250.878 77.5695 252.257L79.6358 253.633C80.5465 252.263 81.466 250.899 82.3945 249.542L80.3464 248.139ZM694.927 240.738L693.922 241.467C694.887 242.8 695.842 244.14 696.79 245.486L698.82 244.055C697.866 242.7 696.904 241.352 695.932 240.01L694.927 240.738ZM86.07 240.009C85.0983 241.351 84.1355 242.7 83.1815 244.055L85.2102 245.485C86.1573 244.139 87.1133 242.8 88.0781 241.467L86.07 240.009ZM689.998 232.038L688.027 233.549C689.027 234.855 690.018 236.169 691.001 237.489L692.993 236.005C692.052 234.74 691.103 233.483 690.146 232.231L689.998 232.038ZM92.0033 232.038C90.9966 233.353 89.9987 234.676 89.0094 236.005L90.9993 237.489C91.982 236.169 92.9739 234.855 93.9738 233.549L92.0033 232.038ZM681.922 225.789C682.956 227.069 683.982 228.356 684.999 229.649L686.951 228.112C685.926 226.81 684.894 225.515 683.852 224.227L681.922 225.789ZM98.1489 224.227C97.1075 225.515 96.0749 226.81 95.0506 228.112L96.0244 228.88L96.0256 228.879L97.0005 229.648C98.0179 228.355 99.0439 227.069 100.078 225.789L98.1489 224.227ZM677.502 216.581L675.614 218.195C676.682 219.447 677.742 220.706 678.793 221.972L680.703 220.384C679.644 219.109 678.579 217.84 677.503 216.58L677.502 216.581ZM104.498 216.58C103.423 217.84 102.358 219.108 101.299 220.383L103.207 221.972C104.258 220.706 105.318 219.447 106.386 218.195L104.498 216.58ZM670.028 209.939L669.106 210.772C670.207 211.994 671.3 213.224 672.385 214.461L674.252 212.823C673.16 211.577 672.059 210.339 670.95 209.108L670.028 209.939ZM111.051 209.108C109.943 210.339 108.842 211.577 107.75 212.822L108.682 213.642L108.683 213.641L109.615 214.461C110.7 213.224 111.793 211.993 112.894 210.77L111.051 209.108ZM662.404 203.523C663.536 204.716 664.662 205.916 665.779 207.124L667.601 205.438C666.476 204.222 665.345 203.012 664.204 201.811L662.404 203.523ZM117.797 201.811C116.656 203.012 115.525 204.222 114.4 205.438L115.31 206.281L115.311 206.28L116.222 207.124C117.339 205.916 118.464 204.715 119.596 203.522L117.797 201.811ZM655.512 196.453C656.677 197.616 657.833 198.787 658.982 199.966L660.759 198.23L660.76 198.229C659.604 197.043 658.439 195.865 657.267 194.695L655.512 196.453ZM124.736 194.695C123.563 195.865 122.398 197.043 121.242 198.229L123.018 199.964C124.167 198.786 125.324 197.616 126.488 196.453L124.736 194.695ZM648.437 189.569C649.631 190.701 650.818 191.842 651.997 192.989L653.728 191.206C652.541 190.051 651.346 188.904 650.144 187.765L648.437 189.569ZM131.857 187.765C130.655 188.904 129.461 190.052 128.274 191.206L130.003 192.988C131.182 191.84 132.369 190.701 133.563 189.569L131.857 187.765ZM641.179 182.874C642.403 183.974 643.621 185.083 644.83 186.199L646.513 184.371C645.296 183.248 644.07 182.134 642.838 181.026L641.179 182.874ZM139.163 181.025C137.931 182.133 136.705 183.248 135.488 184.371L137.17 186.199C138.379 185.083 139.596 183.974 140.821 182.874L139.163 181.025ZM633.751 176.375C635.003 177.442 636.249 178.518 637.487 179.601L639.121 177.731C637.875 176.641 636.622 175.559 635.361 174.485L633.751 176.375ZM146.642 174.484C145.381 175.558 144.127 176.641 142.881 177.731L144.513 179.601C145.751 178.517 146.997 177.442 148.249 176.375L146.642 174.484ZM626.151 170.073C627.431 171.107 628.705 172.149 629.971 173.199L631.556 171.285C630.281 170.228 628.999 169.18 627.711 168.139L626.151 170.073ZM154.291 168.138C153.002 169.179 151.72 170.228 150.445 171.285L152.029 173.199C153.295 172.149 154.57 171.107 155.85 170.073L154.291 168.138ZM618.389 163.975C619.697 164.975 620.998 165.984 622.291 167L623.824 165.045C622.522 164.022 621.212 163.008 619.896 162.002L618.389 163.975ZM162.105 162.002C160.789 163.008 159.479 164.022 158.177 165.045L158.942 166.022L158.944 166.021L159.71 166.999C161.003 165.983 162.304 164.974 163.611 163.975L162.6 162.651L162.105 162.002ZM610.468 158.084C611.801 159.048 613.127 160.021 614.446 161.002L615.927 159.009C614.599 158.021 613.265 157.041 611.923 156.07L610.468 158.084ZM170.079 156.07C168.737 157.041 167.402 158.021 166.074 159.009L167.554 161.002C168.874 160.021 170.2 159.048 171.533 158.084L170.079 156.07ZM602.393 152.404C603.752 153.334 605.105 154.272 606.451 155.218L607.879 153.186C606.525 152.233 605.163 151.288 603.795 150.353L602.393 152.404ZM178.206 150.353C176.838 151.288 175.477 152.232 174.123 153.185L175.549 155.218C176.895 154.272 178.248 153.333 179.607 152.403L178.206 150.353ZM594.174 146.941C595.556 147.833 596.931 148.734 598.3 149.644L599.674 147.574C598.296 146.658 596.911 145.751 595.52 144.853L594.174 146.941ZM186.481 144.853C185.09 145.751 183.706 146.658 182.328 147.574L183.7 149.643C185.069 148.733 186.444 147.833 187.826 146.941L186.899 145.504L186.481 144.853ZM585.81 141.694C587.216 142.551 588.616 143.416 590.01 144.291L591.33 142.184C589.926 141.304 588.516 140.433 587.1 139.571L585.81 141.694ZM194.901 139.571C193.485 140.433 192.075 141.304 190.672 142.184L191.99 144.29C193.384 143.415 194.785 142.549 196.192 141.693L194.901 139.571ZM577.315 136.673C578.742 137.491 580.163 138.319 581.578 139.155L582.841 137.017C581.417 136.175 579.986 135.342 578.55 134.518L577.315 136.673ZM203.453 134.518C202.016 135.342 200.585 136.175 199.16 137.017L200.422 139.155C201.837 138.318 203.259 137.491 204.686 136.673L203.453 134.518ZM568.681 131.874C570.132 132.656 571.577 133.447 573.015 134.247L573.679 133.054L574.222 132.075C572.773 131.27 571.319 130.473 569.859 129.687L568.681 131.874ZM212.144 129.687C210.683 130.473 209.228 131.269 207.779 132.075L208.985 134.247C210.424 133.447 211.868 132.656 213.319 131.874L212.144 129.687ZM559.936 127.313C561.405 128.055 562.868 128.806 564.326 129.567L565.474 127.363L565.475 127.362C564.008 126.597 562.534 125.842 561.055 125.095L559.936 127.313ZM220.946 125.095C219.468 125.842 217.994 126.597 216.527 127.362L217.674 129.565C219.132 128.805 220.595 128.055 222.064 127.313L220.946 125.095ZM551.062 122.979C552.551 123.682 554.035 124.394 555.514 125.116L556.603 122.884C555.115 122.157 553.621 121.44 552.122 120.732L551.062 122.979ZM229.879 120.732C228.38 121.44 226.887 122.157 225.399 122.884L225.935 123.985L226.488 125.116C227.965 124.394 229.449 123.682 230.938 122.979L229.879 120.732ZM542.086 118.887C543.593 119.55 545.095 120.222 546.591 120.905L547.621 118.643C546.115 117.956 544.603 117.279 543.087 116.612L542.086 118.887ZM238.915 116.612C237.398 117.279 235.887 117.956 234.381 118.643L235.41 120.905C236.906 120.222 238.407 119.55 239.914 118.887L238.915 116.612ZM532.998 115.029C534.52 115.652 536.039 116.284 537.551 116.926L538.219 115.352L538.521 114.639C536.999 113.993 535.47 113.358 533.937 112.731L532.998 115.029ZM248.064 112.731C246.531 113.358 245.003 113.993 243.481 114.639L244.449 116.926C245.961 116.284 247.48 115.652 249.002 115.029L248.064 112.731ZM523.816 111.417C525.356 112 526.891 112.593 528.421 113.195L529.331 110.883C527.79 110.277 526.244 109.68 524.694 109.094L523.816 111.417ZM257.309 109.093C255.758 109.679 254.213 110.276 252.672 110.882L253.124 112.039L253.125 112.037L253.579 113.195C255.109 112.593 256.645 112 258.185 111.417L257.309 109.093ZM514.538 108.049C516.09 108.589 517.638 109.139 519.18 109.699L520.026 107.364C518.474 106.8 516.916 106.246 515.354 105.702L514.538 108.049ZM266.647 105.702C265.085 106.246 263.528 106.8 261.975 107.364L262.821 109.699C264.363 109.139 265.91 108.589 267.462 108.049L266.647 105.702ZM505.173 104.928C506.743 105.429 508.308 105.939 509.869 106.46L510.341 105.045L510.654 104.102C509.083 103.578 507.507 103.065 505.926 102.561L505.173 104.928ZM276.075 102.561C274.495 103.065 272.919 103.578 271.347 104.102L272.131 106.458C273.691 105.938 275.257 105.429 276.827 104.928L276.173 102.874L276.075 102.561ZM495.734 102.059C497.312 102.516 498.887 102.983 500.457 103.46L500.848 102.176L501.179 101.083C499.598 100.603 498.014 100.132 496.425 99.6721L495.734 102.059ZM285.576 99.6721C283.987 100.132 282.403 100.603 280.823 101.083L281.544 103.46C283.114 102.983 284.688 102.515 286.266 102.058L285.576 99.6721ZM486.211 99.4367C487.807 99.8533 489.398 100.28 490.985 100.717L491.645 98.3216C490.047 97.8817 488.446 97.4512 486.839 97.0318L486.211 99.4367ZM295.163 97.0318C293.557 97.4512 291.955 97.8805 290.357 98.3204L290.685 99.5192L290.686 99.518L291.015 100.717C292.602 100.28 294.193 99.8533 295.789 99.4367L295.163 97.0318ZM476.639 97.0718C478.24 97.445 479.838 97.8286 481.431 98.2221L482.026 95.81C480.423 95.4138 478.815 95.0281 477.203 94.6524L476.639 97.0718ZM304.799 94.6524C303.187 95.028 301.579 95.4139 299.976 95.81L300.128 96.4312L300.57 98.2221C302.163 97.8286 303.76 97.445 305.361 97.0718L304.799 94.6524ZM466.985 94.9558C468.602 95.2877 470.216 95.6309 471.825 95.9835L472.356 93.5568C470.736 93.2018 469.112 92.8571 467.485 92.523L466.985 94.9558ZM314.518 92.523C312.89 92.8571 311.266 93.2018 309.647 93.5568L310.177 95.9835C311.785 95.6309 313.398 95.2877 315.015 94.9558L314.518 92.523ZM457.307 93.1018C458.926 93.3899 460.542 93.6884 462.154 93.9972L462.621 91.5572C460.998 91.2462 459.372 90.9457 457.741 90.6556L457.307 93.1018ZM324.26 90.6556C322.63 90.9457 321.003 91.2462 319.38 91.5572L319.847 93.9972C321.459 93.6884 323.075 93.3899 324.694 93.1018L324.26 90.6556ZM447.549 91.4977C449.182 91.744 450.813 92.0009 452.439 92.2682L452.841 89.8172L452.842 89.816C451.205 89.5469 449.565 89.2887 447.92 89.0407L447.549 91.4977ZM334.082 89.0407C332.438 89.2886 330.798 89.547 329.161 89.816L329.563 92.2682C331.188 92.0009 332.818 91.744 334.451 91.4977L334.197 89.8172L334.082 89.0407ZM437.791 90.1569C439.424 90.3597 441.054 90.5728 442.681 90.7964L443.019 88.3345C441.382 88.1094 439.741 87.8955 438.097 87.6914L437.791 90.1569ZM343.904 87.6914C342.261 87.8954 340.62 88.1095 338.983 88.3345L339.319 90.7964C340.946 90.5728 342.576 90.3596 344.209 90.1569L343.904 87.6914ZM427.965 89.0674C429.608 89.2276 431.247 89.3993 432.883 89.5806L433.155 87.1114C431.509 86.9289 429.859 86.7571 428.206 86.5957L427.965 89.0674ZM353.796 86.5957C352.142 86.757 350.492 86.9289 348.846 87.1114L349.119 89.5806C350.754 89.3993 352.394 89.2276 354.036 89.0674L353.796 86.5957ZM418.147 88.2386C419.789 88.3558 421.429 88.4839 423.065 88.622L423.274 86.1468C421.627 86.0077 419.977 85.8789 418.324 85.761L418.147 88.2386ZM363.677 85.761C362.024 85.8789 360.374 86.0077 358.727 86.1468L358.935 88.622C360.571 88.4839 362.211 88.3558 363.853 88.2386L363.677 85.761ZM408.279 87.6635C409.926 87.738 411.57 87.8239 413.212 87.9195L413.29 86.5836L413.356 85.4394C411.704 85.3432 410.049 85.2572 408.391 85.1822L408.279 87.6635ZM373.611 85.1822C371.953 85.2572 370.298 85.3432 368.645 85.4394L368.788 87.9195C370.43 87.8239 372.074 87.738 373.721 87.6635L373.611 85.1822ZM398.477 84.8619L398.453 86.1031L398.43 87.3456C400.077 87.3775 401.721 87.42 403.363 87.473L403.443 84.9905C401.791 84.9371 400.136 84.8928 398.478 84.8607L398.477 84.8619ZM383.523 84.8607C381.866 84.8928 380.211 84.9371 378.56 84.9905L378.639 87.473C380.28 87.42 381.925 87.3775 383.571 87.3456L383.523 84.8607ZM391 84.7891C390.168 84.7891 389.336 84.791 388.504 84.7963L388.52 87.2825C389.346 87.2772 390.173 87.274 391 87.274C391.827 87.274 392.654 87.2772 393.48 87.2825L393.497 84.7976L393.498 84.7963C392.666 84.791 391.833 84.7891 391 84.7891Z" fill="black"/>
<path d="M228 266.5L766 0V773C737 783.5 678.5 804.5 676.5 804.5C146.5 947 74.9999 609.5 72.4999 606.5C19.9143 424 163.833 297.167 228 266.5Z" fill="url(#paint0_linear_3535_78)"/>
<defs>
<linearGradient id="paint0_linear_3535_78" x1="89.6037" y1="839.76" x2="786.728" y2="49.011" gradientUnits="userSpaceOnUse">
<stop stop-color="#A93B4B"/>
<stop offset="0.255164" stop-color="#B44A5A"/>
<stop offset="1" stop-color="#FFA7B4"/>
</linearGradient>
</defs>
</svg>
