<svg width="604" height="598" viewBox="0 0 604 598" fill="none" xmlns="http://www.w3.org/2000/svg">
<path d="M302 596V598C301.329 598 300.659 597.997 299.989 597.993L300.003 595.993C300.668 595.997 301.334 596 302 596ZM304.011 597.993C303.341 597.997 302.671 598 302 598V596C302.666 596 303.332 595.997 303.997 595.993L304.011 597.993ZM292.045 595.84C293.367 595.883 294.691 595.917 296.018 595.942L295.997 596.941L295.998 596.942L295.979 597.941C294.644 597.916 293.311 597.88 291.98 597.837L292.045 595.84ZM312.02 597.837C310.689 597.88 309.356 597.916 308.021 597.941L308.002 596.942L307.983 595.942C309.31 595.917 310.634 595.883 311.956 595.84L312.02 597.837ZM284.112 595.48C285.434 595.557 286.759 595.627 288.085 595.687L287.995 597.683C286.66 597.622 285.327 597.553 283.996 597.476L284.112 595.48ZM319.946 596.479L320.003 597.476C318.673 597.553 317.34 597.622 316.005 597.683L315.915 595.687C317.241 595.627 318.566 595.557 319.888 595.48L319.946 596.479ZM276.177 594.915C277.495 595.026 278.815 595.129 280.138 595.224L279.995 597.217C278.664 597.122 277.335 597.018 276.009 596.906L276.177 594.915ZM327.99 596.906C326.664 597.018 325.335 597.122 324.004 597.217L323.862 595.224C325.185 595.129 326.505 595.026 327.823 594.915L327.99 596.906ZM268.271 594.144C269.589 594.289 270.909 594.428 272.231 594.557L272.066 596.248L272.037 596.545C270.706 596.415 269.377 596.277 268.051 596.13L268.271 594.144ZM335.729 594.144L335.948 596.13C334.622 596.277 333.293 596.415 331.962 596.545L331.77 594.557C333.092 594.428 334.412 594.289 335.729 594.144ZM260.38 593.165C261.69 593.345 263.002 593.517 264.317 593.68L264.071 595.663C262.748 595.499 261.427 595.327 260.108 595.146L260.38 593.165ZM343.892 595.146C342.573 595.327 341.252 595.499 339.928 595.663L339.683 593.68C340.998 593.517 342.31 593.345 343.62 593.165L343.892 595.146ZM252.522 591.98C253.832 592.196 255.144 592.402 256.459 592.601L256.31 593.588L256.311 593.589L256.161 594.577C254.837 594.378 253.516 594.17 252.198 593.953L252.522 591.98ZM351.802 593.953C350.484 594.17 349.163 594.378 347.839 594.577L347.69 593.589L347.541 592.601C348.856 592.402 350.169 592.196 351.479 591.98L351.802 593.953ZM244.698 590.589C245.996 590.837 247.298 591.078 248.602 591.31L248.271 593.165L248.251 593.277C246.938 593.044 245.628 592.802 244.321 592.552L244.698 590.589ZM359.629 592.293L359.678 592.552C358.371 592.802 357.061 593.044 355.748 593.277L355.399 591.31C356.703 591.078 358.005 590.837 359.303 590.589L359.629 592.293ZM236.91 588.99C238.206 589.274 239.505 589.55 240.807 589.817L240.405 591.774C239.095 591.505 237.787 591.228 236.482 590.942L236.91 588.99ZM367.518 590.942C366.213 591.228 364.905 591.505 363.595 591.774L363.193 589.817C364.495 589.55 365.795 589.274 367.091 588.99L367.518 590.942ZM229.174 587.188C230.457 587.505 231.743 587.814 233.032 588.114L232.805 589.088L232.694 589.565L232.578 590.061C231.28 589.758 229.986 589.448 228.694 589.129L229.174 587.188ZM375.306 589.129C374.014 589.448 372.719 589.758 371.421 590.061L371.195 589.088L370.969 588.114C372.258 587.814 373.544 587.505 374.827 587.188L375.306 589.129ZM221.479 585.181C222.757 585.532 224.038 585.876 225.323 586.211L224.818 588.146C223.525 587.808 222.235 587.462 220.948 587.108L221.479 585.181ZM382.929 586.657L383.052 587.107C381.765 587.461 380.475 587.808 379.182 588.146L378.93 587.179L378.678 586.211C379.963 585.876 381.244 585.532 382.522 585.181L382.929 586.657ZM213.852 582.973C215.116 583.357 216.383 583.734 217.654 584.102L217.099 586.021C215.819 585.651 214.542 585.272 213.27 584.885L213.852 582.973ZM390.439 583.93L390.631 584.558L390.729 584.885C389.457 585.271 388.181 585.65 386.901 586.021L386.346 584.101C387.617 583.733 388.885 583.357 390.149 582.973L390.439 583.93ZM206.271 580.56C207.527 580.978 208.788 581.388 210.053 581.791L209.749 582.743L209.495 583.543L209.446 583.695C208.173 583.29 206.904 582.877 205.639 582.455L206.271 580.56ZM398.045 581.508L398.36 582.455C397.095 582.877 395.826 583.29 394.553 583.695L393.947 581.791C395.212 581.388 396.472 580.977 397.729 580.559L398.045 581.508ZM198.773 577.951C200.015 578.402 201.261 578.845 202.511 579.279L202.182 580.223L201.854 581.167C200.595 580.729 199.341 580.284 198.091 579.83L198.773 577.951ZM405.908 579.83C404.658 580.284 403.404 580.729 402.146 581.167L401.489 579.279C402.739 578.845 403.985 578.402 405.228 577.951L405.908 579.83ZM191.33 575.139C192.563 575.623 193.8 576.1 195.04 576.568L194.333 578.438C193.084 577.966 191.84 577.486 190.599 576.998L191.33 575.139ZM413.401 576.997C412.16 577.485 410.916 577.966 409.667 578.438L408.961 576.568C410.201 576.1 411.438 575.622 412.67 575.138L413.401 576.997ZM183.978 572.135C185.196 572.651 186.418 573.16 187.645 573.661L186.888 575.51C185.654 575.006 184.423 574.494 183.197 573.975L183.978 572.135ZM420.803 573.975C419.577 574.495 418.346 575.005 417.111 575.51L416.355 573.661C417.582 573.16 418.804 572.651 420.022 572.135L420.803 573.975ZM176.698 568.933C177.903 569.482 179.112 570.023 180.325 570.557L179.922 571.472L179.631 572.135L179.52 572.387C178.298 571.85 177.082 571.305 175.869 570.752L176.698 568.933ZM428.131 570.752C426.918 571.305 425.701 571.85 424.479 572.387L423.675 570.557C424.888 570.023 426.098 569.482 427.303 568.933L428.131 570.752ZM169.513 565.543C170.703 566.124 171.898 566.697 173.097 567.263L172.243 569.07C171.036 568.501 169.833 567.924 168.635 567.339L169.513 565.543ZM435.364 567.339C434.166 567.924 432.963 568.501 431.756 569.07L430.903 567.263C432.103 566.697 433.298 566.124 434.488 565.543L435.364 567.339ZM162.415 561.962C163.589 562.574 164.767 563.178 165.95 563.774L165.499 564.667L165.186 565.29L165.049 565.559C163.858 564.958 162.672 564.35 161.49 563.734L162.415 561.962ZM442.51 563.734C441.328 564.35 440.141 564.958 438.95 565.559L438.05 563.774C439.233 563.177 440.411 562.573 441.585 561.961L442.51 563.734ZM155.417 558.194C156.576 558.838 157.739 559.475 158.907 560.104L157.96 561.863C156.784 561.23 155.612 560.59 154.445 559.941L155.417 558.194ZM449.068 559.068L449.188 559.281L449.554 559.941C448.387 560.589 447.216 561.23 446.04 561.863L445.566 560.983L445.093 560.104C446.261 559.475 447.424 558.838 448.583 558.194L449.068 559.068ZM148.521 554.244C149.661 554.917 150.806 555.583 151.955 556.241L150.961 557.975C149.804 557.312 148.651 556.642 147.504 555.964L148.521 554.244ZM456.495 555.964C455.348 556.641 454.196 557.312 453.039 557.975L452.046 556.241C453.195 555.583 454.339 554.917 455.479 554.244L456.495 555.964ZM141.73 550.111C142.853 550.815 143.982 551.512 145.114 552.201L144.074 553.908C142.934 553.214 141.798 552.513 140.668 551.805L141.73 550.111ZM463.331 551.805C462.201 552.513 461.065 553.214 459.925 553.908L458.887 552.2C460.019 551.511 461.147 550.814 462.27 550.11L463.331 551.805ZM135.055 545.803C136.157 546.535 137.264 547.26 138.377 547.978L137.834 548.817L137.835 548.818L137.293 549.657C136.173 548.934 135.059 548.204 133.949 547.467L135.055 545.803ZM468.945 545.802L470.051 547.467C468.941 548.204 467.827 548.934 466.707 549.657L466.165 548.818L465.623 547.978C466.736 547.26 467.843 546.534 468.945 545.802ZM128.49 541.315C129.574 542.077 130.663 542.833 131.758 543.581L130.629 545.23C129.528 544.478 128.431 543.718 127.341 542.951L128.49 541.315ZM476.659 542.95C475.568 543.717 474.472 544.477 473.37 545.23L472.807 544.406L472.242 543.58C473.337 542.832 474.426 542.077 475.51 541.315L476.659 542.95ZM122.052 536.66C123.114 537.45 124.183 538.233 125.256 539.009L124.084 540.629C123.003 539.848 121.928 539.059 120.858 538.264L122.052 536.66ZM483.141 538.264C482.071 539.059 480.997 539.848 479.916 540.629L478.745 539.009C479.818 538.233 480.886 537.45 481.948 536.66L483.141 538.264ZM115.734 531.834C116.776 532.652 117.823 533.463 118.876 534.268L117.662 535.854C116.602 535.045 115.548 534.229 114.499 533.405L115.734 531.834ZM489.5 533.405C488.451 534.229 487.397 535.045 486.337 535.854L485.124 534.268C486.177 533.463 487.225 532.651 488.267 531.833L489.5 533.405ZM109.549 526.844C110.569 527.689 111.595 528.527 112.626 529.359L111.369 530.916C110.331 530.078 109.299 529.234 108.272 528.383L109.549 526.844ZM495.498 528.106L495.727 528.383C494.7 529.234 493.668 530.078 492.63 530.915L491.375 529.359C492.406 528.528 493.431 527.689 494.451 526.844L495.498 528.106ZM103.496 521.691C104.493 522.563 105.496 523.428 106.505 524.287L105.209 525.809C104.194 524.944 103.184 524.073 102.181 523.195L103.496 521.691ZM501.818 523.195C500.815 524.073 499.806 524.943 498.791 525.808L498.144 525.049L497.495 524.287C498.504 523.428 499.507 522.563 500.504 521.691L501.818 523.195ZM97.582 516.382C98.556 517.28 99.5364 518.171 100.522 519.057L99.1865 520.544C98.1938 519.653 97.2072 518.755 96.2266 517.851L97.582 516.382ZM507.772 517.851C506.792 518.755 505.805 519.652 504.812 520.543L504.146 519.801L503.478 519.057C504.464 518.171 505.444 517.279 506.418 516.381L507.772 517.851ZM91.8105 510.917C92.7601 511.84 93.7159 512.757 94.6777 513.668L93.3027 515.119C92.3345 514.202 91.3728 513.279 90.417 512.35L91.8105 510.917ZM513.583 512.35C512.627 513.279 511.665 514.202 510.696 515.119L509.322 513.668C510.284 512.757 511.24 511.839 512.189 510.916L513.583 512.35ZM86.1855 505.302C87.1105 506.25 88.0419 507.192 88.9795 508.128L87.5674 509.542C86.6235 508.6 85.6852 507.652 84.7539 506.697L86.1855 505.302ZM519.246 506.697C518.315 507.652 517.377 508.6 516.433 509.542L515.021 508.128C515.958 507.192 516.889 506.249 517.814 505.301L519.246 506.697ZM80.7119 499.539C81.6114 500.511 82.5174 501.478 83.4297 502.438L81.9795 503.814C81.0611 502.848 80.1497 501.874 79.2441 500.896L80.7119 499.539ZM524.755 500.896C523.849 501.874 522.938 502.848 522.02 503.814L520.57 502.438C521.483 501.478 522.389 500.511 523.289 499.539L524.755 500.896ZM75.3916 493.634C76.2651 494.63 77.1456 495.62 78.0322 496.604L76.5469 497.941C75.6544 496.951 74.7679 495.955 73.8887 494.952L75.3916 493.634ZM530.111 494.951C529.232 495.954 528.345 496.95 527.452 497.941L526.711 497.273L525.968 496.604C526.854 495.619 527.735 494.63 528.608 493.634L530.111 494.951ZM70.2305 487.59C71.0772 488.609 71.9309 489.622 72.791 490.629L71.2695 491.928C70.4037 490.914 69.5458 489.893 68.6934 488.867L70.2305 487.59ZM535.307 488.866C534.454 489.892 533.596 490.913 532.729 491.927L531.209 490.629C532.069 489.621 532.923 488.608 533.77 487.589L535.307 488.866ZM65.2324 481.411C66.0517 482.452 66.878 483.487 67.7109 484.517L66.1562 485.773C65.3176 484.737 64.486 483.694 63.6611 482.646L65.2324 481.411ZM540.338 482.646C539.513 483.694 538.681 484.737 537.843 485.773L536.289 484.517C537.122 483.487 537.948 482.451 538.768 481.41L540.338 482.646ZM60.3994 475.101C61.1908 476.163 61.9896 477.22 62.7949 478.271L62 478.879L61.207 479.486C60.3963 478.428 59.5927 477.363 58.7959 476.294L60.3994 475.101ZM545.204 476.294C544.407 477.364 543.603 478.428 542.792 479.486L541.206 478.271C542.011 477.22 542.809 476.163 543.601 475.101L545.204 476.294ZM55.7373 468.665C56.5001 469.748 57.2699 470.826 58.0469 471.898L56.4287 473.071C55.6462 471.991 54.8708 470.905 54.1025 469.814L55.7373 468.665ZM549.08 469.24L549.896 469.814C549.128 470.905 548.354 471.99 547.571 473.07L546.763 472.485L545.953 471.898C546.73 470.826 547.5 469.747 548.263 468.664L549.08 469.24ZM51.248 462.106C51.9814 463.209 52.722 464.307 53.4697 465.399L51.8193 466.527C51.0667 465.428 50.3212 464.323 49.583 463.213L51.248 462.106ZM553.584 462.66L554.364 463.179L554.416 463.213C553.678 464.323 552.932 465.428 552.18 466.527L551.355 465.964L550.53 465.398C551.278 464.306 552.019 463.209 552.752 462.106L553.584 462.66ZM46.9355 455.43C47.6396 456.552 48.3516 457.67 49.0703 458.783L48.2295 459.325L47.3896 459.868C46.666 458.748 45.9511 457.622 45.2422 456.491L46.9355 455.43ZM558.757 456.491C558.048 457.621 557.333 458.747 556.609 459.867L554.93 458.783C555.648 457.67 556.36 456.552 557.064 455.43L558.757 456.491ZM42.8047 448.642C43.4779 449.782 44.1586 450.918 44.8467 452.049L43.1387 453.087C42.446 451.949 41.7608 450.805 41.083 449.657L42.8047 448.642ZM562.917 449.657C562.239 450.805 561.553 451.948 560.86 453.086L560.008 452.568L559.153 452.048C559.841 450.917 560.522 449.782 561.195 448.642L562.917 449.657ZM38.8564 441.742C39.4994 442.901 40.1495 444.056 40.8076 445.206L39.9395 445.702L39.9404 445.703L39.0723 446.199C38.4097 445.042 37.7548 443.879 37.1074 442.712L38.8564 441.742ZM566.893 442.711C566.245 443.879 565.59 445.041 564.927 446.199L563.192 445.206C563.851 444.056 564.502 442.902 565.145 441.742L566.893 442.711ZM35.0967 434.744C35.7077 435.919 36.3268 437.09 36.9531 438.256L35.1914 439.201C34.5609 438.027 33.9383 436.849 33.3232 435.666L35.0967 434.744ZM570.676 435.666C570.061 436.849 569.438 438.027 568.808 439.201L567.048 438.256C567.674 437.09 568.292 435.919 568.903 434.744L570.676 435.666ZM31.5234 427.64C32.1033 428.833 32.6916 430.021 33.2871 431.205L32.3926 431.654L31.502 432.104C30.9023 430.911 30.3086 429.715 29.7246 428.514L31.5234 427.64ZM572.477 427.64L574.274 428.514C573.691 429.715 573.099 430.911 572.499 432.103L571.606 431.654L570.714 431.205C571.309 430.021 571.897 428.832 572.477 427.64ZM28.1484 420.452C28.6952 421.659 29.25 422.861 29.8125 424.059L28.9062 424.483L28.0029 424.908C27.4365 423.702 26.8778 422.491 26.3271 421.276L28.1484 420.452ZM577.672 421.276C577.121 422.491 576.563 423.702 575.996 424.908L574.188 424.059C574.75 422.861 575.306 421.658 575.853 420.451L577.672 421.276ZM24.9648 413.166C25.4791 414.388 26.001 415.606 26.5312 416.819L25.6143 417.219L24.7002 417.619C24.1663 416.397 23.6389 415.172 23.1211 413.941L24.9648 413.166ZM579.956 413.554L580.878 413.941C580.36 415.171 579.834 416.397 579.3 417.618L578.385 417.219L577.469 416.818C577.999 415.605 578.521 414.388 579.035 413.166L579.956 413.554ZM21.9824 405.805C22.4633 407.04 22.9522 408.271 23.4492 409.498L21.5957 410.248C21.0952 409.013 20.6034 407.773 20.1191 406.529L21.9824 405.805ZM583.88 406.529C583.396 407.773 582.905 409.013 582.404 410.248L581.478 409.873L580.551 409.497C581.048 408.27 581.537 407.039 582.018 405.805L583.88 406.529ZM19.1982 398.359C19.6451 399.606 20.1003 400.849 20.5635 402.088L18.6914 402.787C18.2251 401.54 17.7673 400.288 17.3174 399.033L19.1982 398.359ZM586.683 399.033C586.233 400.288 585.775 401.539 585.309 402.786L584.373 402.438L583.437 402.087C583.9 400.848 584.355 399.606 584.802 398.359L586.683 399.033ZM16.6191 390.844C17.0326 392.104 17.4538 393.361 17.8838 394.613L15.9932 395.262C15.5603 394.001 15.134 392.736 14.7178 391.468L16.6191 390.844ZM588.33 391.155L589.281 391.468C588.865 392.736 588.439 394 588.006 395.261L587.062 394.938L586.116 394.612C586.546 393.36 586.967 392.104 587.381 390.844L588.33 391.155ZM14.2441 383.262C14.6223 384.529 15.0096 385.794 15.4043 387.055L13.4951 387.651C13.0977 386.382 12.7089 385.109 12.3281 383.833L14.2441 383.262ZM591.671 383.832C591.29 385.108 590.901 386.381 590.504 387.65L588.597 387.054C588.991 385.793 589.378 384.529 589.756 383.262L591.671 383.832ZM12.0762 375.614C12.4208 376.896 12.7734 378.174 13.1348 379.448L11.2119 379.993C10.8479 378.71 10.4926 377.422 10.1455 376.132L12.0762 375.614ZM593.854 376.132C593.507 377.422 593.151 378.709 592.787 379.992L590.865 379.448C591.227 378.174 591.579 376.895 591.924 375.613L593.854 376.132ZM10.1182 367.918C10.427 369.205 10.7437 370.488 11.0693 371.769L9.13184 372.261C8.80382 370.971 8.48388 369.679 8.17285 368.383L10.1182 367.918ZM595.826 368.383C595.515 369.678 595.195 370.971 594.867 372.26L593.899 372.015L592.931 371.768C593.256 370.487 593.573 369.204 593.882 367.917L595.826 368.383ZM8.36719 360.158C8.64195 361.458 8.92494 362.755 9.2168 364.048L7.26562 364.486C6.97184 363.185 6.68771 361.879 6.41113 360.571L8.36719 360.158ZM596.61 360.364L597.588 360.57C597.311 361.879 597.027 363.184 596.733 364.486L595.759 364.268L594.783 364.047C595.075 362.754 595.359 361.458 595.634 360.158L596.61 360.364ZM6.83008 352.371C7.06875 353.673 7.3165 354.973 7.57227 356.27L5.61035 356.655C5.35282 355.35 5.10457 354.042 4.86426 352.73L6.83008 352.371ZM598.152 352.551L599.135 352.73C598.894 354.042 598.646 355.35 598.389 356.655L596.428 356.269C596.683 354.972 596.931 353.673 597.17 352.371L598.152 352.551ZM5.50195 344.522C5.70608 345.836 5.91819 347.148 6.13965 348.456L4.16895 348.788C3.94602 347.471 3.73087 346.152 3.52539 344.829L5.50195 344.522ZM600.474 344.828C600.268 346.151 600.053 347.471 599.83 348.788L597.86 348.455C598.082 347.147 598.294 345.836 598.498 344.522L600.474 344.828ZM4.38965 336.669C4.55762 337.983 4.73467 339.294 4.91992 340.603L3.92871 340.742L2.93945 340.883C2.75292 339.565 2.57538 338.245 2.40625 336.922L4.38965 336.669ZM601.593 336.921C601.424 338.244 601.247 339.565 601.061 340.883L599.08 340.603C599.265 339.294 599.442 337.983 599.61 336.669L601.593 336.921ZM3.4873 328.759C3.62019 330.081 3.76176 331.401 3.91211 332.719L2.91699 332.832L2.91797 332.833L1.92578 332.945C1.77438 331.619 1.63186 330.29 1.49805 328.958L3.4873 328.759ZM601.507 328.858L602.501 328.958C602.367 330.289 602.225 331.618 602.073 332.944L600.088 332.719C600.238 331.401 600.38 330.081 600.513 328.759L601.507 328.858ZM2.7998 320.857C2.89691 322.179 3.00267 323.499 3.11719 324.815L1.12598 324.988C1.01066 323.662 0.904413 322.334 0.806641 321.003L2.7998 320.857ZM603.192 321.002C603.095 322.333 602.988 323.661 602.873 324.987L600.883 324.815C600.997 323.498 601.103 322.178 601.2 320.856L603.192 321.002ZM2.32324 312.912C2.385 314.238 2.45588 315.562 2.53516 316.884L0.539062 317.003C0.459244 315.672 0.388354 314.339 0.326172 313.004L2.32324 312.912ZM603.673 313.003C603.611 314.339 603.54 315.672 603.46 317.003L601.465 316.884C601.544 315.562 601.615 314.238 601.677 312.911L603.673 313.003ZM2.05957 304.981C2.08603 306.307 2.12108 307.631 2.16504 308.953L0.166992 309.019C0.122748 307.688 0.0871755 306.355 0.0605469 305.021L2.05957 304.981ZM603.938 305.02C603.912 306.355 603.876 307.688 603.832 309.019L601.835 308.953C601.879 307.632 601.914 306.307 601.94 304.981L603.938 305.02ZM0 299C0 298.329 0.00140452 297.659 0.00585938 296.989L0.00683594 296.99L2.00684 297.004C2.00242 297.669 2 298.334 2 299C2 299.666 2.00241 300.332 2.00684 300.997L0.00585938 301.011C0.00140446 300.341 0 299.671 0 299ZM604 299C604 299.67 603.998 300.34 603.993 301.01L601.993 300.996C601.998 300.331 602 299.666 602 299C602 298.334 601.998 297.668 601.993 297.003L603.993 296.989C603.998 297.659 604 298.329 604 299ZM1.16602 289.014L2.16504 289.047C2.12109 290.368 2.08602 291.693 2.05957 293.019L0.0605469 292.979C0.0871819 291.644 0.122733 290.311 0.166992 288.98L1.16602 289.014ZM603.832 288.98C603.876 290.311 603.912 291.644 603.938 292.979L601.94 293.019C601.914 291.693 601.879 290.369 601.835 289.047L603.832 288.98ZM2.53516 281.116C2.45587 282.438 2.38501 283.762 2.32324 285.089L0.326172 284.996C0.388354 283.661 0.459244 282.328 0.539062 280.997L2.53516 281.116ZM603.46 280.996C603.54 282.327 603.611 283.66 603.673 284.995L602.676 285.042L602.675 285.041L601.677 285.088C601.615 283.762 601.544 282.438 601.465 281.116L603.46 280.996ZM3.11719 273.185C3.00265 274.502 2.89692 275.822 2.7998 277.144L0.806641 276.997C0.904413 275.666 1.01066 274.338 1.12598 273.012L3.11719 273.185ZM602.873 273.011C602.988 274.337 603.095 275.665 603.192 276.996L601.2 277.143C601.103 275.821 600.997 274.501 600.883 273.185L602.873 273.011ZM3.91211 265.281C3.76175 266.599 3.6202 267.919 3.4873 269.241L2.49219 269.141L1.49805 269.041C1.63183 267.71 1.77442 266.381 1.92578 265.055L3.91211 265.281ZM602.073 265.054C602.225 266.38 602.367 267.709 602.501 269.041L600.513 269.241C600.38 267.919 600.238 266.599 600.088 265.281L602.073 265.054ZM2.93945 257.117L4.91992 257.397C4.73468 258.706 4.55761 260.017 4.38965 261.331L3.39746 261.204L2.40625 261.078C2.57542 259.755 2.7519 258.434 2.93848 257.116L2.93945 257.117ZM601.061 257.116C601.247 258.434 601.424 259.754 601.593 261.077L599.61 261.331C599.442 260.017 599.265 258.706 599.08 257.397L601.061 257.116ZM5.1543 249.378L6.13965 249.545C5.91822 250.853 5.70605 252.164 5.50195 253.478L3.52539 253.171C3.73092 251.848 3.94596 250.528 4.16895 249.211L5.1543 249.378ZM599.83 249.211C600.053 250.528 600.268 251.847 600.474 253.17L599.486 253.324L599.485 253.323L598.498 253.478C598.294 252.164 598.082 250.852 597.86 249.544L599.83 249.211ZM7.57227 241.731C7.31652 243.028 7.06874 244.327 6.83008 245.629L5.84668 245.448L4.86426 245.269C5.10458 243.957 5.35282 242.649 5.61035 241.344L7.57227 241.731ZM598.389 241.344C598.646 242.649 598.894 243.957 599.135 245.269L597.17 245.629C596.931 244.327 596.684 243.027 596.428 241.73L598.389 241.344ZM8.24121 233.732L9.2168 233.953C8.92498 235.246 8.64191 236.542 8.36719 237.842L7.38867 237.635L6.41113 237.429C6.68777 236.12 6.97177 234.815 7.26562 233.513L8.24121 233.732ZM596.733 233.513C597.027 234.814 597.311 236.12 597.588 237.428L595.633 237.842C595.358 236.542 595.075 235.245 594.783 233.952L596.733 233.513ZM10.1006 225.985L11.0693 226.232C10.7437 227.513 10.427 228.796 10.1182 230.083L8.17285 229.616C8.48381 228.321 8.8039 227.028 9.13184 225.739L10.1006 225.985ZM594.867 225.739C595.195 227.028 595.515 228.321 595.826 229.616L594.854 229.85L594.854 229.849L593.882 230.082C593.573 228.795 593.256 227.512 592.931 226.231L594.867 225.739ZM13.1348 218.552C12.7733 219.826 12.4208 221.105 12.0762 222.387L10.1455 221.867C10.4925 220.577 10.848 219.29 11.2119 218.007L13.1348 218.552ZM592.787 218.006C593.151 219.289 593.506 220.577 593.854 221.867L591.924 222.386C591.579 221.104 591.227 219.826 590.865 218.552L592.787 218.006ZM15.4043 210.946C15.0096 212.207 14.6223 213.471 14.2441 214.738L12.3281 214.167C12.7089 212.891 13.0977 211.618 13.4951 210.349L15.4043 210.946ZM590.504 210.348C590.901 211.617 591.29 212.89 591.671 214.166L589.756 214.738C589.378 213.471 588.99 212.206 588.596 210.945L590.504 210.348ZM16.9385 203.062L17.8838 203.388C17.4539 204.64 17.0325 205.896 16.6191 207.156L15.6689 206.844L14.7188 206.532L14.7178 206.531C15.1339 205.263 15.5604 203.999 15.9932 202.738L16.9385 203.062ZM588.006 202.737C588.439 203.998 588.865 205.263 589.281 206.531L587.381 207.156C586.967 205.896 586.546 204.639 586.116 203.387L588.006 202.737ZM19.627 195.562L20.5635 195.913C20.1004 197.152 19.6451 198.394 19.1982 199.641L17.3164 198.966C17.7663 197.711 18.2242 196.46 18.6904 195.213L19.627 195.562ZM585.308 195.212C585.774 196.459 586.232 197.711 586.682 198.966L584.802 199.641C584.355 198.394 583.9 197.151 583.437 195.912L585.308 195.212ZM21.5957 187.752L22.5225 188.127L23.4492 188.503C22.9522 189.73 22.4634 190.961 21.9824 192.196L21.0498 191.832L20.1191 191.47C20.6034 190.226 21.0943 188.986 21.5947 187.751L21.5957 187.752ZM582.403 187.751C582.904 188.986 583.396 190.226 583.88 191.47L582.95 191.833L582.949 191.832L582.018 192.195C581.537 190.96 581.048 189.729 580.551 188.502L582.403 187.751ZM26.5312 181.182C26.0011 182.395 25.4791 183.612 24.9648 184.834L24.043 184.445L23.1211 184.058C23.6388 182.828 24.1654 181.602 24.6992 180.381L26.5312 181.182ZM579.3 180.38C579.834 181.602 580.36 182.827 580.878 184.058L579.035 184.834C578.521 183.612 577.999 182.394 577.469 181.181L579.3 180.38ZM29.8125 173.941C29.2499 175.139 28.6953 176.342 28.1484 177.549L26.3271 176.723C26.8778 175.508 27.4365 174.297 28.0029 173.091L29.8125 173.941ZM575.996 173.091C576.563 174.297 577.121 175.508 577.672 176.723L576.763 177.136L576.762 177.135L575.852 177.548C575.305 176.341 574.75 175.139 574.188 173.941L575.996 173.091ZM33.2871 166.795C32.6916 167.979 32.1034 169.167 31.5234 170.36L29.7246 169.485C30.3084 168.285 30.9005 167.088 31.5 165.896L33.2871 166.795ZM572.498 165.896C573.098 167.088 573.69 168.284 574.274 169.485L572.477 170.36C571.897 169.168 571.308 167.979 570.713 166.795L572.498 165.896ZM36.9521 159.744C36.3259 160.91 35.7076 162.081 35.0967 163.256L33.3232 162.333C33.9383 161.15 34.5609 159.972 35.1914 158.798L36.9521 159.744ZM568.808 158.798C569.438 159.972 570.061 161.15 570.676 162.333L568.903 163.256C568.292 162.081 567.674 160.91 567.048 159.744L568.808 158.798ZM40.8076 152.794C40.1495 153.944 39.4985 155.098 38.8555 156.258L37.1064 155.288C37.754 154.121 38.4095 152.958 39.0723 151.8L40.8076 152.794ZM564.927 151.8C565.589 152.957 566.244 154.12 566.892 155.287L565.145 156.258C564.502 155.099 563.851 153.944 563.192 152.794L564.927 151.8ZM44.8467 145.952C44.1587 147.083 43.4778 148.218 42.8047 149.358L41.083 148.342C41.7608 147.194 42.446 146.05 43.1387 144.912L44.8467 145.952ZM560.86 144.912C561.553 146.05 562.238 147.194 562.916 148.342L561.195 149.358C560.522 148.218 559.841 147.083 559.153 145.952L560.86 144.912ZM49.0703 139.217C48.3516 140.33 47.6396 141.448 46.9355 142.57L45.2422 141.508C45.9509 140.378 46.6662 139.252 47.3896 138.132L49.0703 139.217ZM556.609 138.132C557.333 139.252 558.048 140.378 558.757 141.508L557.064 142.57C556.36 141.448 555.648 140.33 554.93 139.217L556.609 138.132ZM52.6445 132.036L53.4697 132.602C52.7221 133.694 51.9813 134.791 51.248 135.894L49.583 134.786C50.3212 133.676 51.0667 132.571 51.8193 131.472L52.6445 132.036ZM552.18 131.472C552.932 132.571 553.678 133.676 554.416 134.786L552.752 135.894C552.019 134.791 551.278 133.693 550.53 132.601L552.18 131.472ZM57.2373 125.515L58.0469 126.102C57.2698 127.174 56.5002 128.253 55.7373 129.336L54.1025 128.185C54.8706 127.094 55.6455 126.009 56.4277 124.929L57.2373 125.515ZM547.57 124.928C548.353 126.008 549.128 127.094 549.896 128.185L548.263 129.335C547.5 128.252 546.73 127.174 545.953 126.102L547.57 124.928ZM61.207 118.513L62.7939 119.729C61.9887 120.78 61.1908 121.837 60.3994 122.899L58.7949 121.705C59.5528 120.688 60.3173 119.675 61.0879 118.668L61.207 118.513ZM542.792 118.513C543.603 119.571 544.406 120.636 545.203 121.705L543.601 122.899C542.809 121.837 542.01 120.78 541.205 119.729L542.792 118.513ZM67.7109 113.483C66.8779 114.513 66.0518 115.549 65.2324 116.59L63.6611 115.353C64.486 114.305 65.3176 113.262 66.1562 112.226L67.7109 113.483ZM537.843 112.226C538.681 113.262 539.513 114.305 540.338 115.353L539.554 115.971L539.553 115.97L538.768 116.589C537.948 115.548 537.122 114.513 536.289 113.483L537.843 112.226ZM71.2705 106.072L72.791 107.371C71.9308 108.379 71.0773 109.392 70.2305 110.411L68.6924 109.133C69.5451 108.107 70.4034 107.086 71.2695 106.071L71.2705 106.072ZM532.729 106.071C533.595 107.085 534.453 108.106 535.306 109.132L533.77 110.411C532.923 109.392 532.069 108.379 531.209 107.371L532.729 106.071ZM77.2891 100.727L78.0322 101.396C77.1456 102.381 76.2651 103.37 75.3916 104.366L73.8877 103.048C74.7673 102.045 75.6541 101.049 76.5469 100.058L77.2891 100.727ZM527.452 100.058C528.345 101.048 529.231 102.044 530.11 103.047L529.36 103.707L529.359 103.706L528.608 104.366C527.735 103.37 526.854 102.38 525.968 101.396L527.452 100.058ZM83.4297 95.5625C82.5173 96.5229 81.6105 97.4886 80.7109 98.4609L79.2441 97.1035C80.1497 96.1247 81.0611 95.1513 81.9795 94.1846L83.4297 95.5625ZM522.02 94.1846C522.938 95.1513 523.849 96.1247 524.755 97.1035L524.022 97.7822L524.021 97.7812L523.288 98.4609C522.389 97.4887 521.483 96.5219 520.57 95.5615L522.02 94.1846ZM88.9795 89.8721C88.0418 90.8081 87.1106 91.7509 86.1855 92.6992L84.7539 91.3027L84.7529 91.3018C85.6842 90.3472 86.6225 89.3993 87.5664 88.457L88.9795 89.8721ZM516.432 88.457C517.376 89.3993 518.314 90.3472 519.245 91.3018L517.814 92.6982C516.889 91.7501 515.958 90.808 515.021 89.8721L516.432 88.457ZM94.6777 84.332C93.7158 85.2428 92.7602 86.1607 91.8105 87.084L90.416 85.6494C91.372 84.7199 92.3343 83.7968 93.3027 82.8799L94.6777 84.332ZM510.696 82.8799C511.665 83.7966 512.626 84.7201 513.582 85.6494L512.189 87.083C511.24 86.1598 510.284 85.2428 509.322 84.332L510.696 82.8799ZM100.522 78.9434C99.5364 79.8287 98.5561 80.721 97.582 81.6191L96.2266 80.1484C97.207 79.2444 98.194 78.3473 99.1865 77.4561L100.522 78.9434ZM504.812 77.4551C505.805 78.3464 506.792 79.2443 507.772 80.1484L506.418 81.6191C505.444 80.721 504.464 79.8287 503.478 78.9434L504.812 77.4551ZM106.505 73.7129C105.496 74.5716 104.493 75.4369 103.496 76.3086L102.18 74.8037C103.183 73.9264 104.193 73.0557 105.208 72.1914L106.505 73.7129ZM498.79 72.1904C499.805 73.0549 500.815 73.9262 501.818 74.8037L500.504 76.3086C499.507 75.4369 498.504 74.5716 497.495 73.7129L498.79 72.1904ZM112.625 68.6406C111.594 69.4725 110.569 70.3112 109.549 71.1562L108.272 69.6162C109.299 68.7655 110.331 67.9214 111.369 67.084L112.625 68.6406ZM492.63 67.083C493.668 67.9205 494.7 68.7654 495.727 69.6162L494.451 71.1562C493.431 70.3111 492.405 69.4725 491.374 68.6406L492.63 67.083ZM118.876 63.7324C117.823 64.5369 116.775 65.349 115.733 66.167L114.499 64.5938C115.548 63.7704 116.602 62.9543 117.662 62.1445L118.876 63.7324ZM486.337 62.1445C487.397 62.9543 488.451 63.7704 489.5 64.5938L488.884 65.3799L488.883 65.3789L488.266 66.166C487.224 65.3482 486.177 64.5368 485.124 63.7324L485.938 62.667L486.337 62.1445ZM125.255 58.9912C124.182 59.7671 123.114 60.5502 122.052 61.3398L120.858 59.7354C121.928 58.9403 123.002 58.1513 124.083 57.3701L125.255 58.9912ZM479.915 57.3701C480.996 58.1515 482.071 58.9402 483.141 59.7354L481.948 61.3398C480.886 60.5502 479.817 59.7672 478.744 58.9912L479.915 57.3701ZM131.758 54.4199C130.663 55.1679 129.574 55.9226 128.49 56.6846L127.34 55.0488C128.431 54.2817 129.527 53.5216 130.629 52.7686L131.758 54.4199ZM473.37 52.7686C474.471 53.5213 475.568 54.281 476.658 55.0479L475.51 56.6846C474.426 55.9226 473.337 55.1669 472.242 54.4189L473.37 52.7686ZM138.377 50.0225C137.264 50.7405 136.157 51.466 135.055 52.1982L133.948 50.5322C135.058 49.795 136.173 49.0647 137.293 48.3418L138.377 50.0225ZM466.706 48.3418C467.826 49.0647 468.941 49.795 470.051 50.5322L468.945 52.1973C467.843 51.4651 466.736 50.7405 465.623 50.0225L466.369 48.8662L466.706 48.3418ZM145.113 45.7998C143.981 46.4891 142.853 47.1859 141.73 47.8896L140.668 46.1943C141.798 45.4858 142.934 44.7848 144.074 44.0908L145.113 45.7998ZM459.925 44.0908C461.065 44.7848 462.201 45.4858 463.331 46.1943L462.27 47.8887C461.147 47.1849 460.018 46.4882 458.886 45.7988L459.925 44.0908ZM151.954 41.7588C150.805 42.4171 149.661 43.0829 148.521 43.7559L147.504 42.0352C148.651 41.3576 149.803 40.6873 150.96 40.0244L151.954 41.7588ZM453.038 40.0244C454.195 40.6874 455.348 41.3575 456.495 42.0352L455.479 43.7559C454.339 43.0829 453.194 42.4172 452.045 41.7588L453.038 40.0244ZM158.907 37.8965C157.739 38.5253 156.576 39.162 155.417 39.8057L154.883 38.8457L154.445 38.0576C155.612 37.4096 156.783 36.7688 157.959 36.1357L158.907 37.8965ZM446.039 36.1357C447.215 36.7689 448.387 37.4095 449.554 38.0576L448.583 39.8057C447.424 39.162 446.261 38.5253 445.093 37.8965L446.039 36.1357ZM165.95 34.2256C164.767 34.8225 163.589 35.4272 162.415 36.0391L161.49 34.2656L161.489 34.2646C162.671 33.6486 163.858 33.0414 165.049 32.4404L165.95 34.2256ZM438.95 32.4404C440.141 33.0412 441.327 33.6487 442.509 34.2646L441.585 36.0381C440.411 35.4262 439.233 34.8225 438.05 34.2256L438.95 32.4404ZM173.097 30.7373C171.897 31.3031 170.702 31.876 169.512 32.457L168.635 30.6602C169.833 30.0753 171.036 29.4983 172.243 28.9287L173.097 30.7373ZM431.756 28.9287C432.963 29.4983 434.166 30.0753 435.364 30.6602L434.933 31.5469L434.487 32.457C433.297 31.8761 432.102 31.303 430.903 30.7373L431.756 28.9287ZM180.325 27.4434C179.112 27.977 177.902 28.5184 176.697 29.0674L175.868 27.2471C177.081 26.6944 178.298 26.1495 179.52 25.6123L180.325 27.4434ZM424.479 25.6123C425.701 26.1495 426.918 26.6944 428.131 27.2471L427.302 29.0674C426.097 28.5184 424.888 27.977 423.675 27.4434L424.479 25.6123ZM187.645 24.3389C186.418 24.8398 185.196 25.3487 183.978 25.8652L183.439 24.5986L183.196 24.0244C184.422 23.5045 185.653 22.9935 186.888 22.4893L187.645 24.3389ZM417.111 22.4893C418.345 22.9934 419.576 23.5046 420.802 24.0244L420.022 25.8652C418.804 25.3487 417.582 24.8398 416.355 24.3389L417.111 22.4893ZM195.039 21.4316C193.799 21.9004 192.563 22.3778 191.33 22.8623L190.598 21.002C191.839 20.5141 193.083 20.0335 194.332 19.5615L195.039 21.4316ZM409.666 19.5605C410.915 20.0325 412.16 20.5131 413.4 21.001L413.036 21.9316L413.035 21.9307L412.67 22.8623C411.437 22.3777 410.201 21.9004 408.96 21.4316L409.666 19.5605ZM202.511 18.7207C201.261 19.1555 200.015 19.5982 198.772 20.0488L198.091 18.1689C199.341 17.7153 200.595 17.2697 201.854 16.832L202.511 18.7207ZM402.146 16.832C403.404 17.2697 404.658 17.7153 405.908 18.1689L405.227 20.0488C403.985 19.5983 402.739 19.1554 401.489 18.7207L402.146 16.832ZM210.053 16.209C208.788 16.6116 207.528 17.0227 206.271 17.4414L205.891 16.3027L205.639 15.5439C206.904 15.1224 208.173 14.709 209.446 14.3037L210.053 16.209ZM394.553 14.3037C395.826 14.709 397.095 15.1224 398.36 15.5439L397.729 17.4404C396.473 17.0217 395.212 16.6116 393.947 16.209L394.474 14.5557L394.553 14.3037ZM217.654 13.8994C216.383 14.2674 215.115 14.6432 213.851 15.0273L213.536 13.9941L213.27 13.1143C214.542 12.7276 215.818 12.3489 217.098 11.9785L217.654 13.8994ZM386.901 11.9785C388.181 12.3489 389.457 12.7276 390.729 13.1143L390.148 15.0273C388.884 14.6432 387.617 14.2664 386.346 13.8984L386.901 11.9785ZM225.323 11.7891C224.038 12.1243 222.757 12.4677 221.479 12.8193L220.947 10.8916C222.234 10.5375 223.524 10.1911 224.817 9.85352L225.323 11.7891ZM379.181 9.85352C380.474 10.191 381.764 10.5366 383.051 10.8906L382.787 11.8555L382.786 11.8545L382.521 12.8193C381.243 12.4676 379.962 12.1244 378.677 11.7891L379.181 9.85352ZM233.032 9.88574C231.743 10.1861 230.456 10.4948 229.173 10.8115L228.693 8.87012C229.985 8.55125 231.28 8.24082 232.578 7.93848L233.032 9.88574ZM371.421 7.93848C372.719 8.24075 374.013 8.55133 375.305 8.87012L375.183 9.37012L374.826 10.8115C373.543 10.4948 372.257 10.186 370.968 9.88574L371.421 7.93848ZM240.807 8.18262C239.505 8.44975 238.205 8.72598 236.909 9.00977L236.481 7.05664C237.786 6.77096 239.094 6.49353 240.404 6.22461L240.807 8.18262ZM363.594 6.22461C364.905 6.49352 366.212 6.77096 367.517 7.05664L367.09 9.00977C365.794 8.726 364.495 8.44974 363.193 8.18262L363.594 6.22461ZM248.601 6.69043C247.297 6.92236 245.995 7.16258 244.697 7.41113L244.321 5.44727C245.628 5.19703 246.938 4.95517 248.251 4.72168L248.601 6.69043ZM355.748 4.72168C357.061 4.95517 358.371 5.19703 359.678 5.44727L359.302 7.41113C358.004 7.1626 356.702 6.92234 355.398 6.69043L355.748 4.72168ZM256.459 5.39941C255.144 5.59769 253.831 5.80441 252.521 6.01953L252.197 4.04688L252.196 4.0459C253.515 3.8293 254.836 3.6215 256.16 3.42188L256.459 5.39941ZM347.838 3.42188C349.162 3.62145 350.483 3.82937 351.801 4.0459L351.478 6.01953C350.168 5.80444 348.856 5.59766 347.541 5.39941L347.745 4.04688L347.838 3.42188ZM264.317 4.32031C263.002 4.48347 261.69 4.65501 260.38 4.83496L260.107 2.85352C261.426 2.67235 262.747 2.50019 264.071 2.33594L264.317 4.32031ZM339.928 2.33594C341.251 2.50014 342.572 2.67241 343.891 2.85352L343.62 4.83496C342.31 4.65503 340.998 4.48345 339.683 4.32031L339.928 2.33594ZM272.23 3.44336C270.908 3.57233 269.588 3.71053 268.271 3.85645L268.051 1.86914C269.377 1.72225 270.706 1.58393 272.037 1.4541L272.23 3.44336ZM331.962 1.4541C333.293 1.58392 334.622 1.72226 335.948 1.86914L335.729 3.85645C334.411 3.71054 333.091 3.57232 331.769 3.44336L331.962 1.4541ZM280.138 2.77637C278.815 2.87066 277.495 2.97375 276.177 3.08496L276.009 1.09277C277.335 0.980836 278.664 0.877134 279.995 0.782227L280.138 2.77637ZM324.004 0.782227C325.335 0.877129 326.664 0.980841 327.99 1.09277L327.823 3.08496C326.505 2.97375 325.185 2.87066 323.862 2.77637L324.004 0.782227ZM288.085 2.31348C286.759 2.37342 285.434 2.44259 284.112 2.51953L284.049 1.44434L283.996 0.523438C285.326 0.445994 286.659 0.376742 287.994 0.316406L288.085 2.31348ZM316.004 0.316406C317.339 0.376749 318.672 0.445979 320.003 0.523438L319.888 2.51953C318.566 2.44259 317.241 2.37342 315.915 2.31348L316.004 0.316406ZM295.979 0.0585938L295.998 1.05762L296.017 2.05762C294.69 2.0833 293.366 2.11749 292.044 2.16016L291.979 0.162109C293.31 0.119164 294.643 0.0834674 295.978 0.0576172L295.979 0.0585938ZM308.021 0.0576172C309.356 0.0834569 310.688 0.119182 312.019 0.162109L311.955 2.16016C310.633 2.11749 309.309 2.0833 307.982 2.05762L308.021 0.0576172ZM302 0C302.67 0 303.34 0.00154016 304.01 0.00585938L303.997 2.00684C303.332 2.00254 302.666 2 302 2C301.334 2 300.668 2.00254 300.003 2.00684L299.989 0.00683594L299.988 0.00585938C300.658 0.00153171 301.329 0 302 0Z" fill="black"/>
</svg>
