<svg width="24" height="24" viewBox="0 0 24 24" fill="none" xmlns="http://www.w3.org/2000/svg">
<path d="M11.9952 2.1619C15.2 2.1619 15.5762 2.17619 16.8429 2.23333C18.0143 2.28571 18.6476 2.48095 19.0714 2.64762C19.6333 2.86667 20.0333 3.12381 20.4524 3.54286C20.8714 3.9619 21.1333 4.36191 21.3476 4.92381C21.5095 5.34762 21.7095 5.98095 21.7619 7.15238C21.819 8.41905 21.8333 8.79524 21.8333 12C21.8333 15.2048 21.819 15.581 21.7619 16.8476C21.7095 18.019 21.5143 18.6524 21.3476 19.0762C21.1286 19.6381 20.8714 20.0381 20.4524 20.4571C20.0333 20.8762 19.6333 21.1381 19.0714 21.3524C18.6476 21.5143 18.0143 21.7143 16.8429 21.7667C15.5762 21.8238 15.2 21.8381 11.9952 21.8381C8.79048 21.8381 8.41429 21.8238 7.14762 21.7667C5.97619 21.7143 5.34286 21.519 4.91905 21.3524C4.35714 21.1333 3.95714 20.8762 3.5381 20.4571C3.11905 20.0381 2.85714 19.6381 2.64286 19.0762C2.48095 18.6524 2.28095 18.019 2.22857 16.8476C2.17143 15.581 2.15714 15.2048 2.15714 12C2.15714 8.79524 2.17143 8.41905 2.22857 7.15238C2.28095 5.98095 2.47619 5.34762 2.64286 4.92381C2.8619 4.36191 3.11905 3.9619 3.5381 3.54286C3.95714 3.12381 4.35714 2.8619 4.91905 2.64762C5.34286 2.48571 5.97619 2.28571 7.14762 2.23333C8.41429 2.17143 8.79048 2.1619 11.9952 2.1619ZM11.9952 0C8.7381 0 8.32857 0.0142857 7.04762 0.0714286C5.77143 0.128571 4.9 0.333333 4.1381 0.628571C3.34762 0.933333 2.68095 1.34762 2.01429 2.01429C1.34762 2.68095 0.938095 3.35238 0.628571 4.1381C0.333333 4.9 0.128571 5.77143 0.0714286 7.05238C0.0142857 8.32857 0 8.7381 0 11.9952C0 15.2524 0.0142857 15.6619 0.0714286 16.9429C0.128571 18.219 0.333333 19.0905 0.628571 19.8571C0.933333 20.6476 1.34762 21.3143 2.01429 21.981C2.68095 22.6476 3.35238 23.0571 4.1381 23.3667C4.9 23.6619 5.77143 23.8667 7.05238 23.9238C8.33333 23.981 8.7381 23.9952 12 23.9952C15.2619 23.9952 15.6667 23.981 16.9476 23.9238C18.2238 23.8667 19.0952 23.6619 19.8619 23.3667C20.6524 23.0619 21.319 22.6476 21.9857 21.981C22.6524 21.3143 23.0619 20.6429 23.3714 19.8571C23.6667 19.0952 23.8714 18.2238 23.9286 16.9429C23.9857 15.6619 24 15.2571 24 11.9952C24 8.73333 23.9857 8.32857 23.9286 7.04762C23.8714 5.77143 23.6667 4.9 23.3714 4.13333C23.0667 3.34286 22.6524 2.67619 21.9857 2.00952C21.319 1.34286 20.6476 0.933333 19.8619 0.62381C19.1 0.328571 18.2286 0.12381 16.9476 0.0666667C15.6619 0.0142857 15.2524 0 11.9952 0Z" fill="black"/>
<path d="M11.9952 5.83333C8.59524 5.83333 5.83333 8.59048 5.83333 11.9952C5.83333 15.4 8.59524 18.1571 11.9952 18.1571C15.3952 18.1571 18.1571 15.3952 18.1571 11.9952C18.1571 8.59524 15.3952 5.83333 11.9952 5.83333ZM11.9952 15.9952C9.78571 15.9952 7.99524 14.2048 7.99524 11.9952C7.99524 9.78571 9.78571 7.99524 11.9952 7.99524C14.2048 7.99524 15.9952 9.78571 15.9952 11.9952C15.9952 14.2048 14.2048 15.9952 11.9952 15.9952Z" fill="black"/>
<path d="M18.3999 7.02862C19.1941 7.02862 19.838 6.38477 19.838 5.59053C19.838 4.79629 19.1941 4.15243 18.3999 4.15243C17.6057 4.15243 16.9618 4.79629 16.9618 5.59053C16.9618 6.38477 17.6057 7.02862 18.3999 7.02862Z" fill="black"/>
</svg>
