<svg width="750" height="743" viewBox="0 0 750 743" fill="none" xmlns="http://www.w3.org/2000/svg">
<path d="M375 740.515V743C375.833 743 376.665 742.997 377.497 742.992L377.48 740.507C376.654 740.512 375.827 740.515 375 740.515ZM372.503 742.992C373.335 742.997 374.167 743 375 743V740.515C374.173 740.515 373.346 740.512 372.52 740.507L372.503 742.992ZM387.361 740.316C385.72 740.369 384.075 740.412 382.428 740.443L382.454 741.685L382.453 741.686L382.477 742.927C384.134 742.895 385.79 742.851 387.441 742.797L387.361 740.316ZM362.559 742.797C364.211 742.851 365.865 742.895 367.523 742.927L367.547 741.686L367.57 740.443C365.923 740.412 364.279 740.369 362.637 740.316L362.559 742.797ZM397.212 739.87C395.57 739.965 393.926 740.051 392.279 740.126L392.39 742.606C394.048 742.531 395.703 742.445 397.356 742.348L397.212 739.87ZM352.716 741.111L352.645 742.348C354.297 742.445 355.952 742.531 357.61 742.606L357.721 740.126C356.074 740.051 354.43 739.965 352.788 739.87L352.716 741.111ZM407.065 739.167C405.429 739.305 403.789 739.433 402.147 739.55L402.324 742.027C403.977 741.909 405.627 741.78 407.274 741.641L407.065 739.167ZM342.727 741.641C344.374 741.78 346.024 741.909 347.677 742.027L347.853 739.55C346.211 739.433 344.571 739.305 342.935 739.167L342.727 741.641ZM416.881 738.208C415.246 738.39 413.606 738.561 411.964 738.722L412.169 740.823L412.206 741.192C413.859 741.031 415.509 740.859 417.155 740.676L416.881 738.208ZM333.117 738.208L332.846 740.676C334.492 740.859 336.142 741.031 337.796 741.192L338.035 738.722C336.392 738.561 334.753 738.39 333.117 738.208ZM426.681 736.993C425.054 737.216 423.424 737.429 421.791 737.632L422.097 740.096C423.74 739.892 425.381 739.678 427.018 739.453L426.681 736.993ZM322.982 739.453C324.62 739.678 326.26 739.892 327.904 740.096L328.209 737.632C326.576 737.429 324.946 737.216 323.319 736.993L322.982 739.453ZM436.437 735.521C434.812 735.788 433.182 736.045 431.549 736.291L431.735 737.518L431.734 737.519L431.919 738.747C433.563 738.499 435.203 738.241 436.84 737.972L436.437 735.521ZM313.16 737.972C314.797 738.241 316.437 738.499 318.081 738.747L318.265 737.519L318.451 736.291C316.818 736.045 315.187 735.788 313.561 735.521L313.16 737.972ZM446.153 733.792C444.541 734.101 442.925 734.399 441.306 734.687L441.716 736.993L441.741 737.132C443.372 736.842 444.998 736.542 446.621 736.231L446.153 733.792ZM303.441 735.909L303.38 736.231C305.003 736.542 306.63 736.842 308.26 737.132L308.693 734.687C307.074 734.399 305.458 734.101 303.846 733.792L303.441 735.909ZM455.823 731.806C454.215 732.158 452.602 732.501 450.985 732.833L451.484 735.265C453.111 734.931 454.735 734.586 456.355 734.231L455.823 731.806ZM293.645 734.231C295.265 734.586 296.889 734.931 298.516 735.265L299.015 732.833C297.398 732.501 295.784 732.158 294.175 731.806L293.645 734.231ZM465.43 729.567C463.837 729.96 462.24 730.344 460.639 730.717L460.921 731.927L461.058 732.52L461.203 733.135C462.814 732.76 464.422 732.374 466.025 731.978L465.43 729.567ZM283.975 731.978C285.579 732.374 287.187 732.76 288.799 733.135L289.079 731.927L289.36 730.717C287.759 730.344 286.162 729.96 284.569 729.567L283.975 731.978ZM474.985 727.072C473.398 727.509 471.807 727.936 470.211 728.352L470.838 730.756C472.444 730.337 474.046 729.907 475.644 729.467L474.985 727.072ZM274.509 728.907L274.356 729.466C275.954 729.906 277.556 730.337 279.162 730.756L279.475 729.555L279.788 728.352C278.192 727.936 276.6 727.509 275.013 727.072L274.509 728.907ZM484.456 724.329C482.886 724.806 481.312 725.274 479.734 725.732L480.424 728.117C482.013 727.657 483.598 727.185 485.179 726.705L484.456 724.329ZM265.183 725.518L264.945 726.298L264.823 726.705C266.403 727.185 267.987 727.656 269.576 728.116L270.266 725.73C268.688 725.273 267.113 724.806 265.543 724.329L265.183 725.518ZM493.869 721.331C492.309 721.851 490.743 722.361 489.173 722.861L489.55 724.044L489.865 725.037L489.926 725.227C491.507 724.723 493.083 724.21 494.654 723.686L493.869 721.331ZM255.739 722.509L255.347 723.686C256.919 724.21 258.495 724.723 260.075 725.227L260.827 722.861C259.257 722.361 257.691 721.85 256.131 721.329L255.739 722.509ZM503.179 718.09C501.637 718.65 500.09 719.2 498.538 719.74L498.947 720.912L499.354 722.085C500.916 721.542 502.474 720.988 504.026 720.424L503.179 718.09ZM245.975 720.424C247.528 720.988 249.085 721.542 250.647 722.085L251.462 719.74C249.91 719.2 248.362 718.65 246.82 718.09L245.975 720.424ZM512.421 714.595C510.891 715.197 509.355 715.789 507.815 716.372L508.692 718.695C510.243 718.109 511.789 717.512 513.33 716.906L512.421 714.595ZM236.67 716.904C238.211 717.51 239.757 718.108 241.308 718.694L242.184 716.372C240.644 715.789 239.109 715.196 237.579 714.594L236.67 716.904ZM521.551 710.863C520.038 711.505 518.52 712.137 516.998 712.76L517.937 715.056C519.47 714.43 520.998 713.795 522.52 713.149L521.551 710.863ZM227.48 713.149C229.003 713.795 230.531 714.43 232.064 715.056L233.002 712.76C231.48 712.137 229.961 711.505 228.449 710.863L227.48 713.149ZM530.59 706.885C529.094 707.567 527.593 708.239 526.086 708.902L526.587 710.039L526.948 710.863L527.087 711.176C528.603 710.509 530.114 709.832 531.619 709.145L530.59 706.885ZM218.381 709.145C219.887 709.832 221.398 710.509 222.915 711.176L223.914 708.902C222.407 708.239 220.905 707.567 219.409 706.885L218.381 709.145ZM539.512 702.673C538.035 703.395 536.551 704.107 535.062 704.81L536.122 707.056C537.621 706.348 539.115 705.631 540.603 704.904L539.512 702.673ZM209.399 704.904C210.887 705.631 212.38 706.348 213.879 707.056L214.938 704.81C213.449 704.107 211.964 703.395 210.486 702.673L209.399 704.904ZM548.326 698.224C546.868 698.984 545.405 699.734 543.936 700.476L544.496 701.585L544.885 702.359L545.055 702.692C546.534 701.946 548.007 701.191 549.474 700.426L548.326 698.224ZM200.526 700.426C201.993 701.191 203.467 701.946 204.946 702.692L206.064 700.476C204.595 699.734 203.132 698.983 201.674 698.222L200.526 700.426ZM557.015 693.542C555.576 694.342 554.132 695.133 552.681 695.915L553.858 698.101C555.318 697.314 556.773 696.518 558.222 695.713L557.015 693.542ZM192.382 694.628L192.234 694.893L191.779 695.713C193.228 696.518 194.682 697.315 196.142 698.101L196.73 697.008L197.319 695.915C195.868 695.133 194.423 694.342 192.985 693.542L192.382 694.628ZM565.578 688.634C564.163 689.471 562.741 690.298 561.314 691.116L562.549 693.269C563.985 692.446 565.416 691.613 566.841 690.771L565.578 688.634ZM183.16 690.771C184.584 691.613 186.015 692.446 187.451 693.269L188.685 691.116C187.258 690.298 185.837 689.471 184.422 688.634L183.16 690.771ZM574.01 683.5C572.616 684.374 571.215 685.24 569.808 686.096L571.1 688.217C572.516 687.355 573.926 686.484 575.33 685.603L574.01 683.5ZM174.672 685.603C176.075 686.484 177.485 687.355 178.901 688.217L180.19 686.095C178.784 685.238 177.384 684.373 175.99 683.498L174.672 685.603ZM582.3 678.146C580.931 679.056 579.556 679.956 578.174 680.848L578.849 681.892L578.847 681.893L579.52 682.935C580.911 682.037 582.295 681.13 583.672 680.214L582.3 678.146ZM167.7 678.145L166.328 680.214C167.705 681.13 169.089 682.037 170.48 682.935L171.153 681.893L171.826 680.848C170.444 679.956 169.069 679.055 167.7 678.145ZM590.451 672.571C589.105 673.518 587.752 674.456 586.393 675.386L587.795 677.435C589.163 676.5 590.524 675.556 591.878 674.603L590.451 672.571ZM158.122 674.602C159.477 675.555 160.838 676.5 162.206 677.435L162.906 676.411L163.607 675.385C162.248 674.455 160.895 673.518 159.549 672.571L158.122 674.602ZM598.446 666.787C597.126 667.768 595.8 668.741 594.467 669.705L595.922 671.718C597.264 670.747 598.599 669.767 599.927 668.779L598.446 666.787ZM150.074 668.779C151.402 669.767 152.736 670.747 154.078 671.718L155.532 669.705C154.199 668.741 152.873 667.768 151.554 666.787L150.074 668.779ZM606.29 660.79C604.997 661.807 603.696 662.815 602.389 663.814L603.896 665.786C605.212 664.78 606.522 663.766 607.824 662.743L606.29 660.79ZM142.177 662.743C143.479 663.766 144.789 664.78 146.105 665.786L147.611 663.814C146.303 662.815 145.002 661.805 143.709 660.789L142.177 662.743ZM613.971 654.59C612.705 655.64 611.43 656.682 610.15 657.716L611.71 659.65C613 658.609 614.281 657.56 615.556 656.502L613.971 654.59ZM134.729 656.159L134.445 656.502C135.72 657.559 137.002 658.608 138.291 659.649L139.849 657.716C138.568 656.682 137.295 655.64 136.029 654.59L134.729 656.159ZM621.487 648.188C620.249 649.272 619.003 650.347 617.751 651.414L619.36 653.304C620.621 652.23 621.874 651.147 623.12 650.057L621.487 648.188ZM126.881 650.057C128.127 651.147 129.38 652.229 130.64 653.303L131.444 652.36L132.249 651.414C130.997 650.347 129.751 649.271 128.513 648.188L126.881 650.057ZM628.83 641.591C627.621 642.707 626.403 643.815 625.179 644.915L626.838 646.763C628.071 645.655 629.296 644.54 630.513 643.416L628.83 641.591ZM119.488 643.416C120.705 644.54 121.931 645.654 123.163 646.762L123.992 645.839L124.821 644.915C123.596 643.815 122.379 642.706 121.17 641.59L119.488 643.416ZM635.997 634.802C634.818 635.949 633.631 637.088 632.437 638.22L634.144 640.023C635.346 638.884 636.54 637.736 637.727 636.582L635.997 634.802ZM112.273 636.582C113.46 637.736 114.655 638.883 115.857 640.023L117.563 638.22C116.369 637.088 115.182 635.948 114.003 634.8L112.273 636.582ZM642.982 627.825C641.833 629.003 640.676 630.173 639.512 631.336L641.266 633.093C642.438 631.922 643.603 630.745 644.759 629.559L642.982 627.825ZM105.241 629.559C106.397 630.745 107.562 631.922 108.734 633.093L110.488 631.336C109.323 630.173 108.167 629.002 107.018 627.824L105.241 629.559ZM649.778 620.665C648.661 621.873 647.536 623.074 646.404 624.267L648.204 625.977C649.345 624.776 650.476 623.566 651.601 622.35L649.778 620.665ZM98.4004 622.35C99.5248 623.566 100.656 624.776 101.797 625.977L103.596 624.267C102.464 623.074 101.338 621.873 100.221 620.665L98.4004 622.35ZM656.385 613.328C655.3 614.565 654.207 615.796 653.106 617.019L654.95 618.68C656.058 617.449 657.159 616.211 658.251 614.966L656.385 613.328ZM91.7491 614.964C92.8414 616.21 93.9426 617.448 95.0511 618.68L95.9715 617.85L96.8943 617.017C95.7935 615.795 94.7 614.565 93.6154 613.328L91.7491 614.964ZM662.793 605.818C661.742 607.084 660.682 608.343 659.614 609.594L661.503 611.208C662.578 609.948 663.643 608.679 664.702 607.405L662.793 605.818ZM85.298 607.404C86.3567 608.678 87.4228 609.947 88.4982 611.207L90.3862 609.594C89.3179 608.342 88.2582 607.083 87.2067 605.817L85.298 607.404ZM668.999 598.141C667.982 599.434 666.956 600.72 665.922 602L667.852 603.561C668.894 602.273 669.926 600.978 670.951 599.676L668.999 598.141ZM79.0506 599.676C80.0749 600.978 81.1075 602.273 82.1489 603.561L84.0781 602C83.0437 600.72 82.0181 599.433 81.0005 598.14L79.0506 599.676ZM675.001 590.301C674.018 591.621 673.026 592.934 672.026 594.24L673.013 594.995L673.998 595.75C675.005 594.434 676.003 593.112 676.992 591.783L675.001 590.301ZM73.0081 591.783C73.9976 593.112 74.9965 594.434 76.0033 595.75L77.9726 594.24C76.9727 592.934 75.9819 591.62 74.9993 590.301L73.0081 591.783ZM680.79 582.305C679.843 583.65 678.887 584.989 677.922 586.322L679.931 587.779C680.903 586.437 681.866 585.088 682.82 583.733L680.79 582.305ZM68.1953 583.019L67.1815 583.733C68.1352 585.088 69.0974 586.436 70.0687 587.778L71.0728 587.051L72.0781 586.322C71.1131 584.989 70.1575 583.649 69.2102 582.303L68.1953 583.019ZM686.364 574.156C685.454 575.526 684.534 576.89 683.605 578.247L685.655 579.648C686.589 578.282 687.515 576.91 688.432 575.53L686.364 574.156ZM62.6027 574.844L61.6338 575.488L61.5695 575.53C62.4861 576.91 63.4118 578.282 64.3464 579.648L65.3699 578.948L66.3945 578.246C65.4662 576.889 64.5463 575.526 63.6358 574.156L62.6027 574.844ZM691.719 565.86C690.845 567.255 689.961 568.644 689.068 570.027L690.112 570.7L691.155 571.375C692.054 569.983 692.942 568.583 693.822 567.179L691.719 565.86ZM56.1794 567.179C57.0594 568.583 57.9476 569.982 58.8459 571.373L60.9317 570.027C60.0392 568.644 59.1552 567.255 58.2809 565.86L56.1794 567.179ZM696.848 557.426C696.013 558.843 695.167 560.255 694.313 561.659L696.434 562.949C697.294 561.535 698.145 560.114 698.986 558.688L696.848 557.426ZM51.0137 558.688C51.8552 560.114 52.7073 561.534 53.5674 562.948L54.626 562.305L55.6871 561.658C54.8328 560.253 53.9874 558.843 53.1515 557.426L51.0137 558.688ZM701.751 548.854C700.953 550.294 700.145 551.729 699.328 553.157L700.406 553.774L700.405 553.775L701.483 554.391C702.306 552.953 703.119 551.509 703.923 550.058L701.751 548.854ZM46.0771 550.057C46.8812 551.508 47.6951 552.953 48.5181 554.391L50.6717 553.157C49.8544 551.729 49.0461 550.294 48.2477 548.854L46.0771 550.057ZM706.42 540.159C705.661 541.619 704.892 543.073 704.114 544.522L706.302 545.696C707.085 544.238 707.858 542.774 708.622 541.304L706.42 540.159ZM41.3794 541.304C42.1432 542.774 42.9162 544.238 43.6992 545.696L45.8843 544.522C45.1066 543.073 44.339 541.619 43.5803 540.159L41.3794 541.304ZM710.857 531.332C710.137 532.814 709.406 534.29 708.667 535.761L709.777 536.32L710.883 536.878C711.628 535.396 712.365 533.91 713.09 532.417L710.857 531.332ZM39.1433 531.332L36.9109 532.417C37.6358 533.909 38.3711 535.396 39.1154 536.877L40.2238 536.32L41.3321 535.761C40.5927 534.291 39.8634 532.814 39.1433 531.332ZM715.047 522.401C714.369 523.9 713.68 525.394 712.981 526.882L714.106 527.41L715.228 527.938C715.932 526.439 716.625 524.935 717.309 523.425L715.047 522.401ZM32.6922 523.425C33.3759 524.935 34.0696 526.439 34.7731 527.938L37.0188 526.882C36.3203 525.394 35.6304 523.899 34.9513 522.4L32.6922 523.425ZM719.001 513.348C718.362 514.866 717.714 516.38 717.056 517.888L718.194 518.384L719.329 518.881C719.992 517.363 720.647 515.84 721.29 514.312L719.001 513.348ZM29.8559 513.83L28.7112 514.312C29.3541 515.84 30.0079 517.362 30.6708 518.88L31.807 518.384L32.9444 517.886C32.2861 516.379 31.6379 514.866 30.9994 513.348L29.8559 513.83ZM722.704 504.202C722.107 505.737 721.5 507.267 720.883 508.791L723.184 509.723C723.806 508.188 724.416 506.648 725.018 505.102L722.704 504.202ZM24.9836 505.102C25.5848 506.647 26.1944 508.188 26.8159 509.723L27.9666 509.257L29.1174 508.79C28.5003 507.266 27.8931 505.736 27.296 504.202L24.9836 505.102ZM726.161 494.952C725.606 496.5 725.041 498.045 724.466 499.584L726.79 500.453C727.37 498.903 727.938 497.348 728.497 495.789L726.161 494.952ZM21.5034 495.789C22.062 497.348 22.6306 498.902 23.2095 500.452L24.3712 500.018L25.5341 499.583C24.959 498.044 24.3937 496.5 23.8389 494.952L21.5034 495.789ZM729.364 485.614C728.85 487.179 728.327 488.741 727.793 490.297L730.141 491.103C730.678 489.536 731.208 487.965 731.725 486.389L729.364 485.614ZM19.4577 486.001L18.2766 486.389C18.7933 487.965 19.3229 489.535 19.8603 491.102L21.0329 490.7L22.2067 490.296C21.6729 488.74 21.1497 487.179 20.6364 485.614L19.4577 486.001ZM732.313 476.193C731.843 477.768 731.362 479.34 730.872 480.906L733.243 481.647C733.736 480.07 734.219 478.489 734.692 476.903L732.313 476.193ZM15.3093 476.902C15.782 478.487 16.2649 480.069 16.7584 481.646L19.1266 480.905C18.6366 479.339 18.1567 477.768 17.6873 476.193L15.3093 476.902ZM735.005 466.691C734.577 468.283 734.139 469.871 733.69 471.455L736.078 472.132C736.53 470.537 736.971 468.938 737.402 467.334L735.005 466.691ZM12.5991 467.334C13.03 468.937 13.4714 470.536 13.9233 472.131L16.3097 471.455C15.8609 469.871 15.4232 468.282 14.9952 466.69L12.5991 467.334ZM737.436 457.129C737.053 458.727 736.659 460.323 736.255 461.913L738.661 462.525C739.068 460.923 739.465 459.317 739.852 457.706L737.436 457.129ZM10.1496 457.706C10.5358 459.316 10.9332 460.922 11.3404 462.523L12.5421 462.219L13.7451 461.912C13.3406 460.321 12.9474 458.726 12.564 457.128L10.1496 457.706ZM739.61 447.488C739.269 449.102 738.918 450.714 738.555 452.32L740.978 452.865C741.343 451.248 741.696 449.626 742.039 448.001L739.61 447.488ZM9.1759 447.744L7.96204 448C8.30554 449.625 8.6582 451.247 9.02307 452.865L10.2333 452.593L11.4447 452.319C11.0823 450.712 10.7297 449.102 10.3885 447.488L9.1759 447.744ZM741.519 437.812C741.223 439.43 740.915 441.045 740.597 442.656L743.034 443.135C743.353 441.514 743.662 439.888 743.96 438.259L741.519 437.812ZM7.26117 438.035L6.04126 438.259C6.33966 439.888 6.64795 441.514 6.96771 443.135L9.40265 442.655C9.08508 441.044 8.77734 439.43 8.48108 437.812L7.26117 438.035ZM743.168 428.061C742.915 429.693 742.651 431.323 742.376 432.948L744.823 433.36C745.1 431.724 745.367 430.085 745.622 428.441L743.168 428.061ZM4.37878 428.44C4.63397 430.084 4.901 431.724 5.17786 433.36L7.62372 432.947C7.34882 431.322 7.08539 429.693 6.83191 428.061L4.37878 428.44ZM744.549 418.303C744.341 419.935 744.121 421.564 743.891 423.19L745.122 423.364L746.35 423.538C746.582 421.901 746.802 420.261 747.012 418.617L744.549 418.303ZM2.98907 418.616C3.19916 420.26 3.41827 421.901 3.64996 423.538L6.10919 423.19C5.87909 421.564 5.65924 419.935 5.45068 418.303L2.98907 418.616ZM745.67 408.475C745.505 410.118 745.329 411.758 745.142 413.395L746.378 413.535L746.377 413.537L747.609 413.676C747.797 412.028 747.974 410.377 748.14 408.722L745.67 408.475ZM3.09583 408.598L1.86139 408.722C2.02747 410.376 2.20453 412.027 2.39252 413.675L4.85773 413.395C4.67102 411.758 4.49524 410.118 4.33026 408.475L3.09583 408.598ZM746.523 398.657C746.403 400.3 746.272 401.939 746.129 403.575L748.602 403.79C748.745 402.142 748.877 400.492 748.998 398.838L746.523 398.657ZM1.00281 398.837C1.12421 400.49 1.25616 402.141 1.39935 403.789L3.87067 403.575C3.72839 401.939 3.59717 400.299 3.47656 398.656L1.00281 398.837ZM747.115 388.785C747.038 390.433 746.95 392.078 746.852 393.72L749.331 393.868C749.43 392.215 749.518 390.559 749.595 388.9L747.115 388.785ZM0.406189 388.898C0.483459 390.558 0.571411 392.214 0.670593 393.868L3.14795 393.72C3.0495 392.078 2.96149 390.432 2.88483 388.784L0.406189 388.898ZM747.443 378.932C747.41 380.579 747.366 382.224 747.312 383.867L749.793 383.948C749.848 382.295 749.892 380.639 749.925 378.98L747.443 378.932ZM0.076416 378.979C0.109436 380.638 0.153625 382.294 0.208557 383.948L2.68835 383.867C2.63373 382.224 2.59021 380.579 2.55743 378.932L0.076416 378.979ZM750 371.5C750 370.667 749.998 369.834 749.993 369.002L749.992 369.003L747.508 369.02C747.514 369.846 747.517 370.673 747.517 371.5C747.517 372.328 747.514 373.155 747.508 373.981L749.993 373.998C749.998 373.166 750 372.333 750 371.5ZM0 371.5C0 372.333 0.00292969 373.165 0.00848389 373.997L2.49194 373.98C2.48639 373.154 2.48346 372.327 2.48346 371.5C2.48346 370.672 2.48639 369.845 2.49194 369.019L0.00848389 369.002C0.00292969 369.834 0 370.666 0 371.5ZM748.552 359.092L747.312 359.133C747.366 360.776 747.41 362.421 747.443 364.068L749.925 364.02C749.892 362.361 749.848 360.704 749.793 359.051L748.552 359.092ZM0.208557 359.051C0.153625 360.704 0.109436 362.36 0.076416 364.018L2.55743 364.068C2.59021 362.421 2.63379 360.776 2.68835 359.133L0.208557 359.051ZM746.852 349.28C746.95 350.922 747.038 352.568 747.115 354.216L749.595 354.1C749.518 352.441 749.43 350.785 749.331 349.132L746.852 349.28ZM0.670593 349.131C0.571472 350.784 0.483459 352.44 0.406189 354.099L1.64429 354.158L1.64551 354.156L2.88483 354.215C2.96149 352.567 3.0495 350.922 3.14795 349.28L0.670593 349.131ZM746.129 339.425C746.272 341.061 746.403 342.701 746.523 344.344L748.998 344.162C748.877 342.508 748.745 340.858 748.602 339.21L746.129 339.425ZM1.39935 339.209C1.25616 340.857 1.12427 342.507 1.00281 344.161L3.47656 344.343C3.59723 342.7 3.72852 341.061 3.87067 339.425L1.39935 339.209ZM745.142 329.605C745.329 331.242 745.505 332.882 745.67 334.525L746.905 334.4L748.14 334.277C747.974 332.623 747.797 330.972 747.609 329.324L745.142 329.605ZM2.39252 329.323C2.20447 330.971 2.02753 332.622 1.86139 334.277L4.33026 334.525C4.49524 332.882 4.67102 331.242 4.85773 329.605L2.39252 329.323ZM746.35 319.462L743.891 319.81C744.121 321.436 744.341 323.065 744.549 324.697L745.781 324.54L747.012 324.383C746.802 322.739 746.583 321.098 746.351 319.46L746.35 319.462ZM3.64996 319.46C3.41833 321.097 3.1991 322.738 2.98907 324.382L5.45068 324.697C5.65924 323.065 5.87915 321.436 6.10919 319.81L3.64996 319.46ZM743.6 309.846L742.376 310.053C742.651 311.678 742.915 313.307 743.168 314.939L745.622 314.559C745.367 312.915 745.1 311.275 744.823 309.638L743.6 309.846ZM5.17786 309.638C4.90106 311.274 4.63391 312.914 4.37878 314.557L5.60474 314.749L5.60596 314.748L6.83191 314.939C7.08539 313.307 7.34875 311.677 7.62372 310.052L5.17786 309.638ZM740.597 300.345C740.915 301.956 741.223 303.57 741.519 305.188L742.74 304.963L743.96 304.74C743.662 303.111 743.353 301.485 743.034 299.864L740.597 300.345ZM6.96771 299.864C6.64789 301.485 6.33966 303.111 6.04126 304.74L8.48108 305.188C8.7774 303.57 9.08502 301.955 9.40265 300.344L6.96771 299.864ZM739.767 290.407L738.555 290.681C738.918 292.287 739.269 293.898 739.61 295.512L740.825 295.255L742.039 294.999C741.696 293.374 741.343 291.751 740.978 290.134L739.767 290.407ZM9.02307 290.134C8.65826 291.751 8.30548 293.373 7.96204 294.998L10.3897 295.512C10.7308 293.898 11.0823 292.286 11.4447 290.68L9.02307 290.134ZM737.458 280.781L736.255 281.088C736.659 282.679 737.053 284.274 737.436 285.872L739.852 285.292C739.465 283.683 739.068 282.077 738.661 280.475L737.458 280.781ZM11.3404 280.475C10.9332 282.077 10.5358 283.683 10.1496 285.292L11.3561 285.582L11.3574 285.581L12.564 285.871C12.9474 284.273 13.3407 282.677 13.7451 281.087L11.3404 280.475ZM733.69 271.545C734.139 273.129 734.577 274.718 735.005 276.31L737.402 275.664C736.971 274.061 736.53 272.463 736.078 270.868L733.69 271.545ZM13.9233 270.867C13.4713 272.462 13.03 274.061 12.5991 275.664L14.9952 276.309C15.4232 274.717 15.861 273.129 16.3097 271.545L13.9233 270.867ZM730.872 262.095C731.362 263.662 731.843 265.232 732.313 266.807L734.692 266.097C734.219 264.511 733.736 262.93 733.243 261.353L730.872 262.095ZM16.7584 261.352C16.2649 262.929 15.7821 264.51 15.3093 266.096L17.6873 266.807C18.1569 265.232 18.6377 263.66 19.1279 262.094L16.7584 261.352ZM728.967 252.3L727.793 252.704C728.327 254.26 728.85 255.821 729.364 257.386L730.544 256.998L731.723 256.611L731.725 256.61C731.208 255.034 730.678 253.464 730.141 251.897L728.967 252.3ZM19.8603 251.896C19.3228 253.463 18.7935 255.034 18.2766 256.61L20.6364 257.386C21.1497 255.821 21.6729 254.259 22.2067 252.703L19.8603 251.896ZM725.629 242.982L724.466 243.417C725.041 244.956 725.606 246.5 726.161 248.048L728.498 247.21C727.939 245.651 727.371 244.097 726.792 242.547L725.629 242.982ZM23.2108 242.546C22.6317 244.096 22.0633 245.651 21.5046 247.21L23.8389 248.048C24.3938 246.5 24.959 244.955 25.5341 243.416L23.2108 242.546ZM723.184 233.277L722.033 233.743L720.883 234.21C721.5 235.735 722.107 237.265 722.704 238.799L723.862 238.346L725.018 237.896C724.416 236.351 723.807 234.811 723.185 233.276L723.184 233.277ZM26.8171 233.276C26.1956 234.811 25.5849 236.351 24.9836 237.896L26.138 238.348L26.1392 238.346L27.296 238.798C27.8931 237.263 28.5002 235.733 29.1174 234.209L26.8171 233.276ZM717.056 225.114C717.714 226.621 718.362 228.134 719.001 229.652L720.145 229.169L721.29 228.687C720.647 227.159 719.993 225.636 719.33 224.119L717.056 225.114ZM30.6708 224.117C30.0078 225.636 29.3542 227.159 28.7112 228.687L30.9994 229.652C31.6379 228.134 32.2861 226.62 32.9444 225.112L30.6708 224.117ZM712.981 216.118C713.68 217.606 714.368 219.101 715.047 220.6L717.309 219.573C716.625 218.064 715.932 216.56 715.228 215.061L712.981 216.118ZM34.7731 215.061C34.0696 216.56 33.3759 218.064 32.6922 219.573L33.8212 220.087L33.8224 220.085L34.9525 220.599C35.6314 219.1 36.3204 217.606 37.0188 216.118L34.7731 215.061ZM708.667 207.239C709.406 208.71 710.137 210.186 710.857 211.668L713.09 210.581C712.365 209.089 711.63 207.603 710.886 206.122L708.667 207.239ZM39.1166 206.121C38.372 207.602 37.636 209.089 36.9109 210.581L39.1433 211.668C39.8635 210.186 40.594 208.71 41.3333 207.239L39.1166 206.121ZM704.116 198.478C704.893 199.927 705.661 201.381 706.42 202.841L708.622 201.695C707.858 200.225 707.085 198.761 706.302 197.302L704.116 198.478ZM43.6992 197.302C42.9163 198.761 42.1432 200.225 41.3794 201.695L43.5803 202.841C44.339 201.381 45.1066 199.927 45.8843 198.478L43.6992 197.302ZM699.328 189.843C700.146 191.271 700.954 192.706 701.752 194.146L703.924 192.942C703.12 191.491 702.306 190.046 701.483 188.607L699.328 189.843ZM48.5181 188.607C47.6953 190.046 46.8821 191.49 46.0783 192.94L48.2477 194.146C49.0461 192.706 49.8545 191.271 50.6717 189.843L48.5181 188.607ZM694.313 181.342C695.167 182.747 696.013 184.157 696.848 185.574L698.986 184.311C698.145 182.884 697.294 181.464 696.434 180.05L694.313 181.342ZM53.5674 180.05C52.7073 181.464 51.8565 182.884 51.0149 184.311L53.1515 185.574C53.9872 184.157 54.8328 182.746 55.6871 181.342L53.5674 180.05ZM689.068 172.973C689.961 174.356 690.845 175.745 691.719 177.14L693.822 175.82C692.942 174.416 692.054 173.017 691.155 171.625L689.068 172.973ZM58.8459 171.625C57.9476 173.017 57.0594 174.416 56.1794 175.82L58.2809 177.14C59.1552 175.745 60.0392 174.356 60.9317 172.973L58.8459 171.625ZM684.63 164.052L683.605 164.754C684.534 166.111 685.454 167.474 686.364 168.844L688.432 167.468C687.515 166.089 686.589 164.717 685.655 163.35L684.63 164.052ZM64.3464 163.35C63.4118 164.717 62.4861 166.089 61.5695 167.468L63.6358 168.844C64.5464 167.474 65.4661 166.11 66.3945 164.753L64.3464 163.35ZM678.927 155.949L677.922 156.678C678.887 158.011 679.842 159.351 680.79 160.697L682.82 159.266C681.866 157.911 680.904 156.562 679.932 155.221L678.927 155.949ZM70.0699 155.22C69.0983 156.562 68.1356 157.911 67.1815 159.266L69.2102 160.695C70.1573 159.35 71.1133 158.011 72.0781 156.678L70.0699 155.22ZM673.998 147.249L672.027 148.76C673.027 150.066 674.018 151.38 675.001 152.699L676.993 151.215C676.052 149.951 675.103 148.694 674.146 147.442L673.998 147.249ZM76.0033 147.249C74.9966 148.564 73.9987 149.887 73.0093 151.215L74.9993 152.699C75.982 151.379 76.9739 150.066 77.9738 148.76L76.0033 147.249ZM665.922 141C666.956 142.28 667.982 143.567 668.999 144.86L670.951 143.323C669.926 142.021 668.894 140.725 667.852 139.437L665.922 141ZM82.1489 139.437C81.1075 140.725 80.0749 142.021 79.0506 143.323L80.0244 144.091L80.0256 144.089L81.0005 144.859C82.0179 143.566 83.0439 142.28 84.0781 141L82.1489 139.437ZM661.502 131.792L659.614 133.406C660.682 134.658 661.742 135.917 662.793 137.183L664.703 135.595C663.644 134.32 662.579 133.051 661.503 131.791L661.502 131.792ZM88.4982 131.791C87.423 133.051 86.3577 134.319 85.2993 135.594L87.2067 137.183C88.2582 135.917 89.3181 134.658 90.3862 133.406L88.4982 131.791ZM654.028 125.15L653.106 125.983C654.207 127.205 655.3 128.435 656.385 129.672L658.252 128.034C657.16 126.788 656.059 125.55 654.95 124.319L654.028 125.15ZM95.0511 124.319C93.9429 125.55 92.8422 126.788 91.7504 128.033L92.6817 128.853L92.6829 128.852L93.6154 129.672C94.7001 128.435 95.7933 127.204 96.8943 125.981L95.0511 124.319ZM646.404 118.734C647.536 119.927 648.662 121.127 649.779 122.335L651.601 120.649C650.476 119.433 649.345 118.223 648.204 117.022L646.404 118.734ZM101.797 117.022C100.656 118.223 99.5248 119.433 98.4004 120.649L99.3099 121.492L99.311 121.491L100.222 122.335C101.339 121.127 102.464 119.926 103.596 118.733L101.797 117.022ZM639.512 111.664C640.677 112.827 641.833 113.998 642.982 115.176L644.759 113.441L644.76 113.44C643.604 112.254 642.439 111.076 641.267 109.906L639.512 111.664ZM108.736 109.906C107.563 111.076 106.398 112.254 105.242 113.44L107.018 115.175C108.167 113.997 109.324 112.827 110.488 111.664L108.736 109.906ZM632.437 104.78C633.631 105.912 634.818 107.053 635.997 108.2L637.728 106.417C636.541 105.262 635.346 104.115 634.144 102.976L632.437 104.78ZM115.857 102.976C114.655 104.115 113.461 105.263 112.274 106.417L114.003 108.198C115.182 107.051 116.369 105.912 117.563 104.78L115.857 102.976ZM625.179 98.0851C626.403 99.1852 627.621 100.294 628.83 101.41L630.513 99.5824C629.296 98.4592 628.07 97.3445 626.838 96.2372L625.179 98.0851ZM123.163 96.236C121.931 97.3435 120.705 98.459 119.488 99.5824L121.17 101.41C122.379 100.294 123.596 99.1852 124.821 98.0851L123.163 96.236ZM617.751 91.5864C619.003 92.6533 620.249 93.7285 621.487 94.8115L623.121 92.9417C621.875 91.8516 620.622 90.7699 619.361 89.696L617.751 91.5864ZM130.641 89.6948C129.381 90.7688 128.127 91.8515 126.881 92.9417L128.513 94.8115C129.751 93.7284 130.997 92.6534 132.249 91.5864L130.641 89.6948ZM610.151 85.2843C611.431 86.3178 612.705 87.3599 613.971 88.4099L615.556 86.4964C614.281 85.4394 612.999 84.3906 611.71 83.3502L610.151 85.2843ZM138.291 83.349C137.002 84.3895 135.72 85.4393 134.445 86.4964L136.029 88.4099C137.295 87.3598 138.57 86.3179 139.85 85.2843L138.291 83.349ZM602.389 79.1859C603.697 80.1855 604.998 81.1945 606.291 82.2108L607.824 80.2561C606.522 79.2332 605.212 78.2191 603.896 77.213L602.389 79.1859ZM146.105 77.213C144.789 78.2191 143.479 79.2332 142.177 80.2561L142.942 81.2329L142.944 81.2317L143.71 82.2096C145.003 81.1935 146.304 80.1853 147.611 79.1859L146.6 77.8622L146.105 77.213ZM594.468 73.2951C595.801 74.2592 597.127 75.2321 598.446 76.2132L599.927 74.2197C598.599 73.2319 597.265 72.2516 595.923 71.2809L594.468 73.2951ZM154.079 71.2809C152.737 72.2518 151.402 73.2317 150.074 74.2197L151.554 76.2132C152.874 75.232 154.2 74.2592 155.533 73.2951L154.079 71.2809ZM586.393 67.6154C587.752 68.5447 589.105 69.4825 590.451 70.4292L591.879 68.3968C590.525 67.4437 589.163 66.4992 587.795 65.5636L586.393 67.6154ZM162.206 65.5636C160.838 66.4989 159.477 67.4428 158.123 68.3956L159.549 70.4292C160.895 69.4824 162.248 68.5435 163.607 67.6142L162.206 65.5636ZM578.174 62.1517C579.556 63.0438 580.931 63.9452 582.3 64.855L583.674 62.785C582.296 61.8691 580.911 60.9617 579.52 60.0635L578.174 62.1517ZM170.481 60.0635C169.09 60.9617 167.706 61.8691 166.328 62.785L167.7 64.8538C169.069 63.9441 170.444 63.0438 171.826 62.1517L170.899 60.715L170.481 60.0635ZM569.81 56.9051C571.216 57.7616 572.616 58.6273 574.01 59.5017L575.33 57.3953C573.926 56.515 572.516 55.644 571.1 54.7817L569.81 56.9051ZM178.901 54.7817C177.485 55.644 176.075 56.515 174.672 57.3953L175.99 59.5005C177.384 58.626 178.785 57.7604 180.192 56.9039L178.901 54.7817ZM561.315 51.8842C562.742 52.7022 564.163 53.5295 565.578 54.3656L566.841 52.2276C565.417 51.3858 563.986 50.5529 562.55 49.7293L561.315 51.8842ZM187.453 49.7293C186.016 50.5531 184.585 51.3856 183.16 52.2276L184.422 54.3656C185.837 53.5294 187.259 52.7023 188.686 51.8842L187.453 49.7293ZM552.681 47.0854C554.132 47.8667 555.577 48.6578 557.015 49.4575L557.679 48.2648L558.222 47.2856C556.773 46.4805 555.319 45.6843 553.859 44.8978L552.681 47.0854ZM196.144 44.8978C194.683 45.6844 193.228 46.4804 191.779 47.2856L192.985 49.4575C194.424 48.6578 195.868 47.8667 197.319 47.0854L196.144 44.8978ZM543.936 42.5244C545.405 43.2661 546.868 44.0173 548.326 44.7776L549.474 42.5742L549.475 42.573C548.008 41.8075 546.534 41.0531 545.055 40.3064L543.936 42.5244ZM204.946 40.3064C203.468 41.0529 201.994 41.8077 200.527 42.573L201.674 44.7764C203.132 44.0162 204.595 43.266 206.064 42.5244L204.946 40.3064ZM535.062 38.1903C536.551 38.8933 538.035 39.6051 539.514 40.327L540.603 38.0945C539.115 37.3678 537.621 36.6509 536.122 35.9432L535.062 38.1903ZM213.879 35.9432C212.38 36.6509 210.887 37.3678 209.399 38.0945L209.935 39.1962L210.488 40.327C211.966 39.6053 213.449 38.8932 214.938 38.1903L213.879 35.9432ZM526.086 34.0977C527.593 34.7607 529.095 35.4333 530.591 36.1155L531.621 33.8538C530.115 33.1671 528.603 32.4901 527.087 31.8226L526.086 34.0977ZM222.915 31.8226C221.398 32.4901 219.887 33.1671 218.381 33.8538L219.41 36.1155C220.906 35.4334 222.407 34.7607 223.914 34.0977L222.915 31.8226ZM516.998 30.2404C518.52 30.8629 520.039 31.4951 521.551 32.1369L522.219 30.5632L522.521 29.8497C520.999 29.2037 519.47 28.5689 517.937 27.9423L516.998 30.2404ZM232.064 27.9423C230.531 28.5688 229.003 29.2038 227.481 29.8497L228.449 32.1369C229.961 31.4951 231.48 30.8629 233.002 30.2404L232.064 27.9423ZM507.816 26.6283C509.356 27.2107 510.891 27.8038 512.421 28.4058L513.331 26.0944C511.79 25.4883 510.244 24.8911 508.694 24.3047L507.816 26.6283ZM241.309 24.3035C239.758 24.8899 238.212 25.4871 236.672 26.0932L237.124 27.2495L237.125 27.2483L237.579 28.4058C239.109 27.8038 240.645 27.2108 242.185 26.6283L241.309 24.3035ZM498.538 23.26C500.09 23.8002 501.638 24.3503 503.18 24.9102L504.026 22.5745C502.474 22.0108 500.916 21.4572 499.354 20.9134L498.538 23.26ZM250.647 20.9134C249.085 21.4572 247.528 22.0108 245.975 22.5745L246.821 24.9102C248.363 24.3503 249.91 23.8001 251.462 23.26L250.647 20.9134ZM489.173 20.1393C490.743 20.6395 492.309 21.1503 493.869 21.6705L494.341 20.2557L494.654 19.313C493.083 18.7892 491.507 18.2756 489.926 17.772L489.173 20.1393ZM260.075 17.772C258.495 18.2756 256.919 18.7892 255.347 19.313L256.131 21.6693C257.691 21.1491 259.257 20.6395 260.827 20.1393L260.173 18.085L260.075 17.772ZM479.734 17.2697C481.312 17.7269 482.887 18.1938 484.457 18.6711L484.848 17.3874L485.179 16.2941C483.598 15.8137 482.014 15.3432 480.425 14.883L479.734 17.2697ZM269.576 14.883C267.987 15.3432 266.403 15.8137 264.823 16.2941L265.544 18.6711C267.114 18.1939 268.688 17.7256 270.266 17.2685L269.576 14.883ZM470.211 14.6476C471.807 15.0642 473.398 15.4908 474.985 15.9277L475.645 13.5325C474.047 13.0926 472.446 12.6621 470.839 12.2427L470.211 14.6476ZM279.163 12.2427C277.557 12.6621 275.955 13.0915 274.357 13.5313L274.685 14.7301L274.686 14.7289L275.015 15.9277C276.602 15.4907 278.193 15.0642 279.789 14.6476L279.163 12.2427ZM460.639 12.2828C462.24 12.6559 463.838 13.0395 465.431 13.433L466.026 11.0209C464.423 10.6247 462.815 10.239 461.203 9.86336L460.639 12.2828ZM288.799 9.86336C287.187 10.2389 285.579 10.6248 283.976 11.0209L284.128 11.6421L284.57 13.433C286.163 13.0395 287.76 12.6559 289.361 12.2828L288.799 9.86336ZM450.985 10.1667C452.602 10.4986 454.216 10.8418 455.825 11.1944L456.356 8.7677C454.736 8.41274 453.112 8.06805 451.485 7.73392L450.985 10.1667ZM298.518 7.73392C296.89 8.06804 295.266 8.41275 293.647 8.7677L294.177 11.1944C295.785 10.8418 297.398 10.4986 299.015 10.1667L298.518 7.73392ZM441.307 8.31269C442.926 8.60085 444.542 8.89933 446.154 9.20815L446.621 6.76809C444.998 6.45718 443.372 6.15668 441.741 5.86657L441.307 8.31269ZM308.26 5.86657C306.63 6.15667 305.003 6.45718 303.38 6.76809L303.847 9.20815C305.459 8.89935 307.075 8.60083 308.694 8.31269L308.26 5.86657ZM431.549 6.70864C433.182 6.95498 434.813 7.21183 436.439 7.47912L436.841 5.02814L436.842 5.02693C435.205 4.75781 433.565 4.49962 431.92 4.25159L431.549 6.70864ZM318.082 4.25159C316.438 4.49956 314.798 4.75789 313.161 5.02693L313.563 7.47912C315.188 7.21187 316.818 6.95496 318.451 6.70864L318.197 5.02814L318.082 4.25159ZM421.791 5.36788C423.424 5.5706 425.054 5.78373 426.681 6.00732L427.019 3.54542C425.382 3.32033 423.741 3.10642 422.097 2.90234L421.791 5.36788ZM327.904 2.90234C326.261 3.10636 324.62 3.3204 322.983 3.54542L323.319 6.00732C324.946 5.78375 326.576 5.57058 328.209 5.36788L327.904 2.90234ZM411.965 4.27829C413.608 4.43853 415.247 4.61024 416.883 4.79154L417.155 2.32236C415.509 2.13986 413.859 1.96799 412.206 1.80668L411.965 4.27829ZM337.796 1.80668C336.142 1.96798 334.492 2.13986 332.846 2.32236L333.119 4.79154C334.754 4.61025 336.394 4.43852 338.036 4.27829L337.796 1.80668ZM402.147 3.44957C403.789 3.56672 405.429 3.69481 407.065 3.83299L407.274 1.35774C405.627 1.21866 403.977 1.08982 402.324 0.971897L402.147 3.44957ZM347.677 0.971897C346.024 1.08981 344.374 1.21867 342.727 1.35774L342.935 3.83299C344.571 3.69481 346.211 3.56672 347.853 3.44957L347.677 0.971897ZM392.279 2.87444C393.926 2.94892 395.57 3.03486 397.212 3.13045L397.29 1.79455L397.356 0.650358C395.704 0.554136 394.049 0.468093 392.391 0.393127L392.279 2.87444ZM357.611 0.393127C355.953 0.468101 354.298 0.554118 352.645 0.650358L352.788 3.13045C354.43 3.03485 356.074 2.94892 357.721 2.87444L357.611 0.393127ZM382.477 0.0728013L382.453 1.31406L382.43 2.55654C384.077 2.58845 385.721 2.63093 387.363 2.68394L387.443 0.201417C385.791 0.148058 384.136 0.103706 382.478 0.0715879L382.477 0.0728013ZM367.523 0.0715879C365.866 0.103693 364.211 0.148081 362.56 0.201417L362.639 2.68394C364.28 2.63093 365.925 2.58844 367.572 2.55654L367.523 0.0715879ZM375 0C374.168 0 373.336 0.00191361 372.504 0.00728013L372.52 2.49344C373.346 2.48811 374.173 2.48495 375 2.48495C375.827 2.48495 376.654 2.48811 377.48 2.49344L377.497 0.00849348L377.498 0.00728013C376.666 0.00190311 375.833 0 375 0Z" fill="black"/>
</svg>
